<svg xmlns="http://www.w3.org/2000/svg" version="1.1" xmlns:xlink="http://www.w3.org/1999/xlink" x="0px" y="0px" viewBox="0 0 2000 240" style="enable-background:new 0 0 2000 240;" xml:space="preserve">
    <defs>
        <style type="text/css">
            .st0{display:none;}
            .st1{display:inline;}
            .st2{fill:none;stroke:#222222;stroke-width:6.2;stroke-miterlimit:8;stroke-opacity:0.42;}
            .st3{display:inline;opacity:0.31;fill:none;stroke:#2E2E33;stroke-width:7;stroke-miterlimit:10;}
            .st4{opacity:0.31;fill:none;stroke:#2E2E33;stroke-width:7;stroke-miterlimit:10;}
        </style>
    </defs>
    <g id="Layer_2" data-name="Layer 2">
        <g id="Layer_9" data-name="Layer 9">
            <g id="Layer_2_copy" data-name="Layer 2 copy">
                <rect class="cls-1" x="949.48" y="633.59" width="1920" height="1080" />
            </g>
            <g id="Layer_6_copy" data-name="Layer 6 copy">
                <path class="cls-2" d="M66.44,1083.06S785.37,657.5,1806.77,939.46,3658.23,786.68,3658.23,786.68" />
                <path class="cls-2" d="M73.63,1170.13S792.55,744.56,1814,1026.52,3665.42,873.74,3665.42,873.74" />
                <path class="cls-2" d="M80.81,1257.19s718.93-425.56,1740.33-143.61S3672.6,960.81,3672.6,960.81" />
                <path class="cls-2" d="M88,1344.26s718.93-425.57,1740.33-143.61,1851.47-152.78,1851.47-152.78" />
                <path class="cls-2" d="M95.18,1431.32s718.93-425.56,1740.33-143.61S3687,1134.93,3687,1134.93" />
                <path class="cls-2" d="M102.36,1518.38s718.93-425.56,1740.33-143.6S3694.16,1222,3694.16,1222" />
                <path class="cls-2" d="M109.55,1605.45s718.92-425.57,1740.33-143.61,1851.46-152.78,1851.46-152.78" />
                <path class="cls-2" d="M116.73,1692.51S835.66,1267,1857.06,1548.9s1851.46-152.77,1851.46-152.77" />
                <path class="cls-2" d="M123.92,1779.58S842.84,1354,1864.25,1636s1851.46-152.78,1851.46-152.78" />
                <path class="cls-2" d="M131.1,1866.64S850,1441.08,1871.43,1723s1851.46-152.78,1851.46-152.78" />
                <path class="cls-2" d="M138.29,1953.7s718.92-425.56,1740.32-143.6,1851.47-152.78,1851.47-152.78" />
                <path class="cls-2" d="M145.47,2040.77S864.4,1615.2,1885.8,1897.16s1851.46-152.78,1851.46-152.78" />
                <path class="cls-2" d="M152.65,2127.83S871.58,1702.27,1893,1984.22s1851.47-152.77,1851.47-152.77" />
                <path class="cls-2" d="M159.84,2214.9s718.93-425.57,1740.33-143.61,1851.46-152.78,1851.46-152.78" />
                <path class="cls-2" d="M167,2302S886,1876.4,1907.35,2158.35s1851.46-152.78,1851.46-152.78" />
                <path class="cls-2" d="M174.21,2389s718.92-425.56,1740.33-143.6S3766,2092.64,3766,2092.64" />
                <path class="cls-2" d="M181.39,2476.09s718.93-425.57,1740.33-143.61S3773.18,2179.7,3773.18,2179.7" />
                <path class="cls-2" d="M59.26,996S778.18,570.43,1799.59,852.39,3651.05,699.61,3651.05,699.61" />
                <path class="cls-2" d="M52.07,908.94S771,483.37,1792.4,765.33,3643.87,612.55,3643.87,612.55" />
                <path class="cls-2" d="M44.89,821.87S763.82,396.31,1785.22,678.26,3636.68,525.49,3636.68,525.49" />
                <path class="cls-2" d="M37.7,734.81S756.63,309.24,1778,591.2,3629.5,438.42,3629.5,438.42" />
                <path class="cls-2" d="M30.52,647.74s718.93-425.56,1740.33-143.6S3622.31,351.36,3622.31,351.36" />
                <path class="cls-2" d="M23.34,560.68S742.26,135.11,1763.67,417.07,3615.13,264.29,3615.13,264.29" />
                <path class="cls-2" d="M16.15,473.61S735.08,48.05,1756.48,330,3607.94,177.23,3607.94,177.23" />
                <path class="cls-2" d="M9,386.55S727.89-39,1749.3,242.94,3600.76,90.16,3600.76,90.16" />
                <path class="cls-2" d="M1.78,299.49S720.71-126.08,1742.11,155.88,3593.58,3.1,3593.58,3.1" />
            </g>
        </g>
    </g>
</svg>