<svg xmlns="http://www.w3.org/2000/svg" viewBox="0 0 3000 1080"><defs><style>.cls-1{fill:#0f0f11;}.cls-2{fill:none;stroke:#252529;stroke-miterlimit:10;stroke-width:7px;opacity:0.35;}</style></defs><g id="Layer_2_copy_2" data-name="Layer 2 copy 2"><rect class="cls-1" width="3000" height="1080"/></g><g id="Layer_6_copy_2" data-name="Layer 6 copy 2"><path class="cls-2" d="M-684,129.68s925.18-449.36,2149.86,0,2287.13,0,2287.13,0"/><path class="cls-2" d="M-684,237.23s925.18-449.36,2149.86,0,2287.13,0,2287.13,0"/><path class="cls-2" d="M-684,344.78s925.18-449.36,2149.86,0,2287.13,0,2287.13,0"/><path class="cls-2" d="M-684,452.34S241.18,3,1465.86,452.34s2287.13,0,2287.13,0"/><path class="cls-2" d="M-684,559.89s925.18-449.37,2149.86,0,2287.13,0,2287.13,0"/><path class="cls-2" d="M-684,667.44s925.18-449.36,2149.86,0,2287.13,0,2287.13,0"/><path class="cls-2" d="M-684,775s925.18-449.36,2149.86,0S3753,775,3753,775"/><path class="cls-2" d="M-684,882.54s925.18-449.36,2149.86,0,2287.13,0,2287.13,0"/><path class="cls-2" d="M-684,990.09s925.18-449.36,2149.86,0,2287.13,0,2287.13,0"/><path class="cls-2" d="M-684,1097.64s925.18-449.36,2149.86,0,2287.13,0,2287.13,0"/><path class="cls-2" d="M-684,1205.2s925.18-449.37,2149.86,0,2287.13,0,2287.13,0"/><path class="cls-2" d="M-684,22.13s925.18-449.36,2149.86,0,2287.13,0,2287.13,0"/><path class="cls-2" d="M-684-85.42s925.18-449.37,2149.86,0,2287.13,0,2287.13,0"/><path class="cls-2" d="M-684-193s925.18-449.37,2149.86,0S3753-193,3753-193"/></g></svg>