<svg id="all_main_copy" data-name="all main copy" xmlns="http://www.w3.org/2000/svg" viewBox="0 0 3000 1080"><defs><style>.cls-1{fill:#0f0f11;}.cls-2{fill:none;stroke:#252529;stroke-miterlimit:10;stroke-width:10px;}</style></defs><g id="this_copy_4" data-name="this copy 4"><rect class="cls-1" width="3000" height="1080"/></g><g id="this_copy_4-2" data-name="this copy 4-2"><g id="right"><circle class="cls-2" cx="840" cy="697" r="982"/><circle class="cls-2" cx="941" cy="697" r="982"/><circle class="cls-2" cx="1046" cy="697" r="982"/><circle class="cls-2" cx="1142" cy="697" r="982"/><circle class="cls-2" cx="1245" cy="697" r="982"/><circle class="cls-2" cx="1346" cy="697" r="982"/><circle class="cls-2" cx="1449" cy="697" r="982"/><circle class="cls-2" cx="1550" cy="697" r="982"/><circle class="cls-2" cx="1659" cy="697" r="982"/><circle class="cls-2" cx="1771" cy="697" r="982"/><circle class="cls-2" cx="1874" cy="697" r="982"/><circle class="cls-2" cx="1977" cy="697" r="982"/><circle class="cls-2" cx="2092" cy="697" r="982"/><circle class="cls-2" cx="2217" cy="697" r="982"/><circle class="cls-2" cx="840" cy="697" r="887"/><circle class="cls-2" cx="840" cy="697" r="790"/><circle class="cls-2" cx="840" cy="697" r="678"/><circle class="cls-2" cx="840" cy="697" r="576"/><circle class="cls-2" cx="840" cy="697" r="481"/><circle class="cls-2" cx="840" cy="697" r="385"/><circle class="cls-2" cx="840" cy="697" r="272"/><circle class="cls-2" cx="840" cy="697" r="187"/><circle class="cls-2" cx="840" cy="697" r="103"/></g></g></svg>