<svg xmlns="http://www.w3.org/2000/svg" viewBox="0 0 3000 1080"><defs><style>.cls-1{fill:#0f0f11;}.cls-2{fill:none;stroke:#252529;stroke-miterlimit:10;stroke-width:7px;opacity:0.35;}</style></defs><g id="this_copy" data-name="this copy"><rect class="cls-1" width="3000" height="1080"/></g><g id="this_copy_2" data-name="this copy 2"><path class="cls-2" d="M-702.3,260.8s897.16-503,2146.14-126.43S3727-.13,3727-.13"/><path class="cls-2" d="M-696,368.16s897.15-503,2146.13-126.43,2283.18-134.5,2283.18-134.5"/><path class="cls-2" d="M-689.65,475.53s897.16-503,2146.14-126.43S3739.67,214.6,3739.67,214.6"/><path class="cls-2" d="M-683.32,582.89s897.15-503,2146.13-126.42S3746,322,3746,322"/><path class="cls-2" d="M-677,690.26s897.16-503,2146.14-126.43,2283.18-134.5,2283.18-134.5"/><path class="cls-2" d="M-670.67,797.62s897.15-503,2146.13-126.42S3758.64,536.69,3758.64,536.69"/><path class="cls-2" d="M-664.35,905S232.81,402,1481.79,778.56,3765,644.06,3765,644.06"/><path class="cls-2" d="M-658,1012.36s897.15-503,2146.13-126.43S3771.29,751.42,3771.29,751.42"/><path class="cls-2" d="M-651.7,1119.72s897.16-503,2146.14-126.43,2283.18-134.5,2283.18-134.5"/><path class="cls-2" d="M-645.37,1227.09s897.15-503,2146.13-126.43,2283.18-134.5,2283.18-134.5"/><path class="cls-2" d="M-639,1334.45s897.16-503,2146.14-126.43,2283.18-134.5,2283.18-134.5"/><path class="cls-2" d="M-708.62,153.43S188.53-349.56,1437.51,27,3720.69-107.5,3720.69-107.5"/><path class="cls-2" d="M-714.95,46.07s897.16-503,2146.14-126.43,2283.18-134.5,2283.18-134.5"/></g></svg>