<svg id="all_main_copy" data-name="all main copy" xmlns="http://www.w3.org/2000/svg" viewBox="0 0 3000 1080"><defs><style>.cls-1{fill:#0f0f11;}.cls-2{fill:none;stroke:#252529;stroke-miterlimit:10;stroke-width:10px;opacity:0.35;}</style></defs><g id="this_copy_4" data-name="this copy 4"><rect class="cls-1" width="3000" height="1080"/></g><g id="this_copy_3-2" data-name="this copy 3-2"><path class="cls-2" d="M1779.81-1730.68s503,897.15,126.43,2146.13,134.5,2283.18,134.5,2283.18"/><path class="cls-2" d="M1672.44-1724.36s503,897.16,126.43,2146.14S1933.38,2705,1933.38,2705"/><path class="cls-2" d="M1565.08-1718s503,897.15,126.43,2146.13S1826,2711.28,1826,2711.28"/><path class="cls-2" d="M1457.71-1711.71s503,897.16,126.43,2146.14,134.51,2283.18,134.51,2283.18"/><path class="cls-2" d="M1350.35-1705.38s503,897.15,126.43,2146.13,134.5,2283.18,134.5,2283.18"/><path class="cls-2" d="M1243-1699.06S1746-801.9,1369.41,447.08s134.5,2283.18,134.5,2283.18"/><path class="cls-2" d="M1135.62-1692.73s503,897.15,126.43,2146.13,134.5,2283.18,134.5,2283.18"/><path class="cls-2" d="M1028.25-1686.41s503,897.16,126.43,2146.14,134.5,2283.18,134.5,2283.18"/><path class="cls-2" d="M920.89-1680.08s503,897.15,126.43,2146.13,134.5,2283.18,134.5,2283.18"/><path class="cls-2" d="M813.52-1673.76S1316.51-776.61,940,472.37s134.5,2283.19,134.5,2283.19"/><path class="cls-2" d="M706.16-1667.43s503,897.15,126.43,2146.13,134.5,2283.18,134.5,2283.18"/><path class="cls-2" d="M598.79-1661.11S1101.78-764,725.22,485s134.5,2283.19,134.5,2283.19"/><path class="cls-2" d="M491.43-1654.78s503,897.15,126.42,2146.13S752.36,2774.53,752.36,2774.53"/><path class="cls-2" d="M384.06-1648.46s503,897.15,126.43,2146.13S645,2780.86,645,2780.86"/><path class="cls-2" d="M276.69-1642.13S779.69-745,403.12,504,537.63,2787.18,537.63,2787.18"/><path class="cls-2" d="M169.33-1635.81s503,897.15,126.43,2146.13,134.5,2283.19,134.5,2283.19"/><path class="cls-2" d="M62-1629.48S565-732.33,188.39,516.65,322.9,2799.83,322.9,2799.83"/><path class="cls-2" d="M1887.18-1737s503,897.16,126.42,2146.14,134.51,2283.18,134.51,2283.18"/><path class="cls-2" d="M1994.54-1743.33S2497.53-846.18,2121,402.8,2255.47,2686,2255.47,2686"/><path class="cls-2" d="M2101.91-1749.66s503,897.16,126.43,2146.14,134.5,2283.18,134.5,2283.18"/><path class="cls-2" d="M2209.27-1756s503,897.15,126.43,2146.13,134.5,2283.18,134.5,2283.18"/><path class="cls-2" d="M2316.64-1762.31s503,897.16,126.43,2146.14S2577.57,2667,2577.57,2667"/><path class="cls-2" d="M2424-1768.63S2927-871.48,2550.43,377.5s134.5,2283.18,134.5,2283.18"/><path class="cls-2" d="M2531.37-1775s503,897.16,126.43,2146.14,134.5,2283.18,134.5,2283.18"/><path class="cls-2" d="M2638.73-1781.28s503,897.15,126.43,2146.13S2899.67,2648,2899.67,2648"/><path class="cls-2" d="M2746.1-1787.61s503,897.16,126.43,2146.14S3007,2641.71,3007,2641.71"/><path class="cls-2" d="M2958.33-1724.81s503,897.15,126.43,2146.13,134.5,2283.19,134.5,2283.19"/><path class="cls-2" d="M2851-1718.48s503,897.15,126.43,2146.13S3111.9,2710.83,3111.9,2710.83"/><path class="cls-2" d="M-264.63-1633S238.36-735.8-138.2,513.18-3.7,2796.36-3.7,2796.36"/><path class="cls-2" d="M-157.27-1639.28s503,897.15,126.43,2146.13S103.67,2790,103.67,2790"/><path class="cls-2" d="M-49.9-1645.61s503,897.16,126.43,2146.14S211,2783.71,211,2783.71"/></g></svg>