<svg xmlns="http://www.w3.org/2000/svg" viewBox="0 0 3000 1080"><defs><style>.cls-1{fill:#0f0f11;}.cls-2{fill:none;stroke:#252529;stroke-miterlimit:10;stroke-width:5px;opacity:0.35;}</style></defs><g id="this_copy_4" data-name="this copy 4"><rect class="cls-1" width="3000" height="1080"/></g><g id="Layer_25_copy_2" data-name="Layer 25 copy 2"><g id="_252529_copy_9-6" data-name="252529 copy 9"><polygon class="cls-2" points="-6.56 396.23 -55.29 396.23 -91.05 375.16 -41.2 375.16 -6.56 396.23"/><polygon class="cls-2" points="58.2 435.61 11.56 435.61 -21.16 416.33 26.5 416.33 58.2 435.61"/><polygon class="cls-2" points="117.61 471.74 72.9 471.74 42.84 454.04 88.5 454.04 117.61 471.74"/><polygon class="cls-2" points="172.33 505.02 129.38 505.02 101.68 488.7 145.5 488.7 172.33 505.02"/><polygon class="cls-2" points="4.96 305.81 -48.58 305.81 -87.8 280.32 -32.9 280.32 4.96 305.81"/><polygon class="cls-2" points="75.26 353.15 24.24 353.15 -11.33 330.03 40.92 330.03 75.26 353.15"/><polygon class="cls-2" points="139.25 396.23 90.51 396.23 58.1 375.16 107.96 375.16 139.25 396.23"/><polygon class="cls-2" points="197.73 435.61 151.09 435.61 121.44 416.33 169.1 416.33 197.73 435.61"/><polygon class="cls-2" points="251.4 471.74 206.68 471.74 179.45 454.04 225.1 454.04 251.4 471.74"/><polygon class="cls-2" points="300.82 505.02 257.87 505.02 232.77 488.7 276.58 488.7 300.82 505.02"/><polygon class="cls-2" points="18.99 195.6 -40.41 195.6 -83.81 164.13 -22.73 164.13 18.99 195.6"/><polygon class="cls-2" points="95.86 253.57 39.54 253.57 0.59 225.33 58.42 225.33 95.86 253.57"/><polygon class="cls-2" points="165.15 305.81 111.61 305.81 76.45 280.32 131.35 280.32 165.15 305.81"/><polygon class="cls-2" points="227.92 353.15 176.89 353.15 145 330.03 197.26 330.03 227.92 353.15"/><polygon class="cls-2" points="285.05 396.23 236.32 396.23 207.26 375.16 257.11 375.16 285.05 396.23"/><polygon class="cls-2" points="337.27 435.61 290.63 435.61 264.04 416.33 311.71 416.33 337.27 435.61"/><polygon class="cls-2" points="385.18 471.74 340.47 471.74 316.05 454.04 361.71 454.04 385.18 471.74"/><polygon class="cls-2" points="429.31 505.02 386.36 505.02 363.86 488.7 407.67 488.7 429.31 505.02"/><polygon class="cls-2" points="36.48 58.28 -30.23 58.28 -78.81 18.46 -9.98 18.46 36.48 58.28"/><polygon class="cls-2" points="121.24 130.91 58.4 130.91 15.36 95.64 80.08 95.64 121.24 130.91"/><polygon class="cls-2" points="196.72 195.6 137.32 195.6 98.93 164.13 160.01 164.13 196.72 195.6"/><polygon class="cls-2" points="264.37 253.57 208.05 253.57 173.59 225.33 231.42 225.33 264.37 253.57"/><polygon class="cls-2" points="325.34 305.81 271.8 305.81 240.7 280.32 295.6 280.32 325.34 305.81"/><polygon class="cls-2" points="380.58 353.15 329.55 353.15 301.34 330.03 353.6 330.03 380.58 353.15"/><polygon class="cls-2" points="430.85 396.23 382.12 396.23 356.41 375.16 406.27 375.16 430.85 396.23"/><polygon class="cls-2" points="476.8 435.61 430.17 435.61 406.65 416.33 454.31 416.33 476.8 435.61"/><polygon class="cls-2" points="518.97 471.74 474.25 471.74 452.65 454.04 498.31 454.04 518.97 471.74"/><polygon class="cls-2" points="557.8 505.02 514.85 505.02 494.94 488.7 538.76 488.7 557.8 505.02"/><polygon class="cls-2" points="236.06 58.28 169.36 58.28 127.11 18.46 195.94 18.46 236.06 58.28"/><polygon class="cls-2" points="309.27 130.91 246.42 130.91 209 95.64 273.72 95.64 309.27 130.91"/><polygon class="cls-2" points="374.45 195.6 315.05 195.6 281.67 164.13 342.75 164.13 374.45 195.6"/><polygon class="cls-2" points="432.88 253.57 376.56 253.57 346.59 225.33 404.42 225.33 432.88 253.57"/><polygon class="cls-2" points="485.53 305.81 431.99 305.81 404.95 280.32 459.84 280.32 485.53 305.81"/><polygon class="cls-2" points="533.23 353.15 482.21 353.15 457.68 330.03 509.93 330.03 533.23 353.15"/><polygon class="cls-2" points="576.65 396.23 527.92 396.23 505.57 375.16 555.42 375.16 576.65 396.23"/><polygon class="cls-2" points="616.34 435.61 569.7 435.61 549.25 416.33 596.91 416.33 616.34 435.61"/><polygon class="cls-2" points="652.75 471.74 608.04 471.74 589.25 454.04 634.91 454.04 652.75 471.74"/><polygon class="cls-2" points="686.29 505.02 643.34 505.02 626.03 488.7 669.84 488.7 686.29 505.02"/><polygon class="cls-2" points="435.65 58.28 368.94 58.28 333.03 18.46 401.86 18.46 435.65 58.28"/><polygon class="cls-2" points="497.29 130.91 434.45 130.91 402.64 95.64 467.36 95.64 497.29 130.91"/><polygon class="cls-2" points="552.18 195.6 492.78 195.6 464.41 164.13 525.48 164.13 552.18 195.6"/><polygon class="cls-2" points="601.38 253.57 545.06 253.57 519.59 225.33 577.41 225.33 601.38 253.57"/><polygon class="cls-2" points="645.72 305.81 592.18 305.81 569.19 280.32 624.09 280.32 645.72 305.81"/><polygon class="cls-2" points="685.89 353.15 634.87 353.15 614.02 330.03 666.27 330.03 685.89 353.15"/><polygon class="cls-2" points="722.46 396.23 673.72 396.23 654.72 375.16 704.58 375.16 722.46 396.23"/><polygon class="cls-2" points="755.87 435.61 709.24 435.61 691.85 416.33 739.51 416.33 755.87 435.61"/><polygon class="cls-2" points="786.54 471.74 741.82 471.74 725.86 454.04 771.51 454.04 786.54 471.74"/><polygon class="cls-2" points="814.78 505.02 771.83 505.02 757.12 488.7 800.93 488.7 814.78 505.02"/><polygon class="cls-2" points="635.23 58.28 568.52 58.28 538.95 18.46 607.78 18.46 635.23 58.28"/><polygon class="cls-2" points="685.32 130.91 622.47 130.91 596.27 95.64 661 95.64 685.32 130.91"/><polygon class="cls-2" points="729.91 195.6 670.51 195.6 647.14 164.13 708.22 164.13 729.91 195.6"/><polygon class="cls-2" points="769.89 253.57 713.57 253.57 692.59 225.33 750.41 225.33 769.89 253.57"/><polygon class="cls-2" points="805.91 305.81 752.37 305.81 733.44 280.32 788.34 280.32 805.91 305.81"/><polygon class="cls-2" points="838.55 353.15 787.53 353.15 770.36 330.03 822.61 330.03 838.55 353.15"/><polygon class="cls-2" points="868.26 396.23 819.52 396.23 803.88 375.16 853.73 375.16 868.26 396.23"/><polygon class="cls-2" points="895.41 435.61 848.77 435.61 834.46 416.33 882.12 416.33 895.41 435.61"/><polygon class="cls-2" points="920.33 471.74 875.61 471.74 862.46 454.04 908.12 454.04 920.33 471.74"/><polygon class="cls-2" points="943.27 505.02 900.32 505.02 888.2 488.7 932.02 488.7 943.27 505.02"/><polygon class="cls-2" points="834.81 58.28 768.11 58.28 744.87 18.46 813.7 18.46 834.81 58.28"/><polygon class="cls-2" points="873.34 130.91 810.49 130.91 789.91 95.64 854.63 95.64 873.34 130.91"/><polygon class="cls-2" points="907.65 195.6 848.24 195.6 829.88 164.13 890.96 164.13 907.65 195.6"/><polygon class="cls-2" points="938.39 253.57 882.07 253.57 865.59 225.33 923.41 225.33 938.39 253.57"/><polygon class="cls-2" points="966.1 305.81 912.56 305.81 897.69 280.32 952.58 280.32 966.1 305.81"/><polygon class="cls-2" points="991.21 353.15 940.18 353.15 926.69 330.03 978.95 330.03 991.21 353.15"/><polygon class="cls-2" points="1014.06 396.23 965.33 396.23 953.03 375.16 1002.88 375.16 1014.06 396.23"/><polygon class="cls-2" points="1034.94 435.61 988.31 435.61 977.06 416.33 1024.72 416.33 1034.94 435.61"/><polygon class="cls-2" points="1054.11 471.74 1009.39 471.74 999.06 454.04 1044.72 454.04 1054.11 471.74"/><polygon class="cls-2" points="1071.76 505.02 1028.81 505.02 1019.29 488.7 1063.1 488.7 1071.76 505.02"/><polygon class="cls-2" points="1034.4 58.28 967.69 58.28 950.79 18.46 1019.62 18.46 1034.4 58.28"/><polygon class="cls-2" points="1061.36 130.91 998.52 130.91 983.55 95.64 1048.27 95.64 1061.36 130.91"/><polygon class="cls-2" points="1085.38 195.6 1025.97 195.6 1012.62 164.13 1073.7 164.13 1085.38 195.6"/><polygon class="cls-2" points="1106.9 253.57 1050.58 253.57 1038.59 225.33 1096.41 225.33 1106.9 253.57"/><polygon class="cls-2" points="1126.29 305.81 1072.75 305.81 1061.93 280.32 1116.83 280.32 1126.29 305.81"/><polygon class="cls-2" points="1143.87 353.15 1092.84 353.15 1083.03 330.03 1135.28 330.03 1143.87 353.15"/><polygon class="cls-2" points="1159.86 396.23 1111.13 396.23 1102.19 375.16 1152.04 375.16 1159.86 396.23"/><polygon class="cls-2" points="1174.48 435.61 1127.84 435.61 1119.66 416.33 1167.32 416.33 1174.48 435.61"/><polygon class="cls-2" points="1187.89 471.74 1143.18 471.74 1135.66 454.04 1181.32 454.04 1187.89 471.74"/><polygon class="cls-2" points="1200.25 505.02 1157.3 505.02 1150.38 488.7 1194.19 488.7 1200.25 505.02"/><polygon class="cls-2" points="1233.98 58.28 1167.27 58.28 1156.71 18.46 1225.53 18.46 1233.98 58.28"/><polygon class="cls-2" points="1249.39 130.91 1186.54 130.91 1177.18 95.64 1241.9 95.64 1249.39 130.91"/><polygon class="cls-2" points="1263.11 195.6 1203.7 195.6 1195.36 164.13 1256.43 164.13 1263.11 195.6"/><polygon class="cls-2" points="1275.4 253.57 1219.08 253.57 1211.59 225.33 1269.41 225.33 1275.4 253.57"/><polygon class="cls-2" points="1286.48 305.81 1232.94 305.81 1226.18 280.32 1281.08 280.32 1286.48 305.81"/><polygon class="cls-2" points="1296.53 353.15 1245.5 353.15 1239.37 330.03 1291.62 330.03 1296.53 353.15"/><polygon class="cls-2" points="1305.66 396.23 1256.93 396.23 1251.34 375.16 1301.19 375.16 1305.66 396.23"/><polygon class="cls-2" points="1314.02 435.61 1267.38 435.61 1262.26 416.33 1309.93 416.33 1314.02 435.61"/><polygon class="cls-2" points="1321.68 471.74 1276.96 471.74 1272.27 454.04 1317.92 454.04 1321.68 471.74"/><polygon class="cls-2" points="1328.74 505.02 1285.79 505.02 1281.46 488.7 1325.28 488.7 1328.74 505.02"/><polygon class="cls-2" points="1433.56 58.28 1366.86 58.28 1362.63 18.46 1431.45 18.46 1433.56 58.28"/><polygon class="cls-2" points="1437.41 130.91 1374.57 130.91 1370.82 95.64 1435.54 95.64 1437.41 130.91"/><polygon class="cls-2" points="1440.84 195.6 1381.43 195.6 1378.09 164.13 1439.17 164.13 1440.84 195.6"/><polygon class="cls-2" points="1443.91 253.57 1387.59 253.57 1384.59 225.33 1442.41 225.33 1443.91 253.57"/><polygon class="cls-2" points="1446.67 305.81 1393.13 305.81 1390.43 280.32 1445.33 280.32 1446.67 305.81"/><polygon class="cls-2" points="1449.18 353.15 1398.16 353.15 1395.7 330.03 1447.96 330.03 1449.18 353.15"/><polygon class="cls-2" points="1451.46 396.23 1402.73 396.23 1400.5 375.16 1450.35 375.16 1451.46 396.23"/><polygon class="cls-2" points="1453.55 435.61 1406.91 435.61 1404.87 416.33 1452.53 416.33 1453.55 435.61"/><polygon class="cls-2" points="1455.46 471.74 1410.75 471.74 1408.87 454.04 1454.53 454.04 1455.46 471.74"/><polygon class="cls-2" points="1457.23 505.02 1414.28 505.02 1412.55 488.7 1456.36 488.7 1457.23 505.02"/><polygon class="cls-2" points="1633.15 58.28 1566.44 58.28 1568.55 18.46 1637.37 18.46 1633.15 58.28"/><polygon class="cls-2" points="1625.43 130.91 1562.59 130.91 1564.46 95.64 1629.18 95.64 1625.43 130.91"/><polygon class="cls-2" points="1618.57 195.6 1559.16 195.6 1560.83 164.13 1621.91 164.13 1618.57 195.6"/><polygon class="cls-2" points="1612.41 253.57 1556.09 253.57 1557.59 225.33 1615.41 225.33 1612.41 253.57"/><polygon class="cls-2" points="1606.87 305.81 1553.33 305.81 1554.67 280.32 1609.57 280.32 1606.87 305.81"/><polygon class="cls-2" points="1601.84 353.15 1550.82 353.15 1552.04 330.03 1604.3 330.03 1601.84 353.15"/><polygon class="cls-2" points="1597.27 396.23 1548.54 396.23 1549.65 375.16 1599.5 375.16 1597.27 396.23"/><polygon class="cls-2" points="1593.09 435.61 1546.45 435.61 1547.47 416.33 1595.13 416.33 1593.09 435.61"/><polygon class="cls-2" points="1589.25 471.74 1544.54 471.74 1545.47 454.04 1591.13 454.04 1589.25 471.74"/><polygon class="cls-2" points="1585.72 505.02 1542.77 505.02 1543.64 488.7 1587.45 488.7 1585.72 505.02"/><polygon class="cls-2" points="1832.73 58.28 1766.02 58.28 1774.47 18.46 1843.29 18.46 1832.73 58.28"/><polygon class="cls-2" points="1813.46 130.91 1750.61 130.91 1758.1 95.64 1822.82 95.64 1813.46 130.91"/><polygon class="cls-2" points="1796.3 195.6 1736.89 195.6 1743.57 164.13 1804.64 164.13 1796.3 195.6"/><polygon class="cls-2" points="1780.92 253.57 1724.6 253.57 1730.59 225.33 1788.41 225.33 1780.92 253.57"/><polygon class="cls-2" points="1767.06 305.81 1713.52 305.81 1718.92 280.32 1773.82 280.32 1767.06 305.81"/><polygon class="cls-2" points="1754.5 353.15 1703.47 353.15 1708.38 330.03 1760.63 330.03 1754.5 353.15"/><polygon class="cls-2" points="1743.07 396.23 1694.34 396.23 1698.81 375.16 1748.66 375.16 1743.07 396.23"/><polygon class="cls-2" points="1732.62 435.61 1685.98 435.61 1690.07 416.33 1737.74 416.33 1732.62 435.61"/><polygon class="cls-2" points="1723.04 471.74 1678.32 471.74 1682.08 454.04 1727.73 454.04 1723.04 471.74"/><polygon class="cls-2" points="1714.21 505.02 1671.26 505.02 1674.72 488.7 1718.54 488.7 1714.21 505.02"/><polygon class="cls-2" points="2032.31 58.28 1965.6 58.28 1980.38 18.46 2049.21 18.46 2032.31 58.28"/><polygon class="cls-2" points="2001.48 130.91 1938.64 130.91 1951.73 95.64 2016.45 95.64 2001.48 130.91"/><polygon class="cls-2" points="1974.03 195.6 1914.62 195.6 1926.31 164.13 1987.38 164.13 1974.03 195.6"/><polygon class="cls-2" points="1949.42 253.57 1893.1 253.57 1903.59 225.33 1961.41 225.33 1949.42 253.57"/><polygon class="cls-2" points="1927.25 305.81 1873.71 305.81 1883.17 280.32 1938.07 280.32 1927.25 305.81"/><polygon class="cls-2" points="1907.16 353.15 1856.13 353.15 1864.72 330.03 1916.97 330.03 1907.16 353.15"/><polygon class="cls-2" points="1888.87 396.23 1840.14 396.23 1847.96 375.16 1897.81 375.16 1888.87 396.23"/><polygon class="cls-2" points="1872.16 435.61 1825.52 435.61 1832.68 416.33 1880.34 416.33 1872.16 435.61"/><polygon class="cls-2" points="1856.82 471.74 1812.11 471.74 1818.68 454.04 1864.34 454.04 1856.82 471.74"/><polygon class="cls-2" points="1842.7 505.02 1799.75 505.02 1805.81 488.7 1849.62 488.7 1842.7 505.02"/><polygon class="cls-2" points="2231.89 58.28 2165.19 58.28 2186.3 18.46 2255.13 18.46 2231.89 58.28"/><polygon class="cls-2" points="2189.51 130.91 2126.66 130.91 2145.37 95.64 2210.09 95.64 2189.51 130.91"/><polygon class="cls-2" points="2151.76 195.6 2092.35 195.6 2109.04 164.13 2170.12 164.13 2151.76 195.6"/><polygon class="cls-2" points="2117.93 253.57 2061.61 253.57 2076.59 225.33 2134.41 225.33 2117.93 253.57"/><polygon class="cls-2" points="2087.44 305.81 2033.9 305.81 2047.42 280.32 2102.31 280.32 2087.44 305.81"/><polygon class="cls-2" points="2059.82 353.15 2008.79 353.15 2021.05 330.03 2073.31 330.03 2059.82 353.15"/><polygon class="cls-2" points="2034.67 396.23 1985.94 396.23 1997.12 375.16 2046.97 375.16 2034.67 396.23"/><polygon class="cls-2" points="2011.69 435.61 1965.06 435.61 1975.28 416.33 2022.94 416.33 2011.69 435.61"/><polygon class="cls-2" points="1990.61 471.74 1945.89 471.74 1955.28 454.04 2000.94 454.04 1990.61 471.74"/><polygon class="cls-2" points="1971.19 505.02 1928.24 505.02 1936.9 488.7 1980.71 488.7 1971.19 505.02"/><polygon class="cls-2" points="2431.48 58.28 2364.77 58.28 2392.22 18.46 2461.05 18.46 2431.48 58.28"/><polygon class="cls-2" points="2377.53 130.91 2314.69 130.91 2339.01 95.64 2403.73 95.64 2377.53 130.91"/><polygon class="cls-2" points="2329.49 195.6 2270.09 195.6 2291.78 164.13 2352.86 164.13 2329.49 195.6"/><polygon class="cls-2" points="2286.43 253.57 2230.11 253.57 2249.59 225.33 2307.41 225.33 2286.43 253.57"/><polygon class="cls-2" points="2247.63 305.81 2194.09 305.81 2211.66 280.32 2266.56 280.32 2247.63 305.81"/><polygon class="cls-2" points="2212.47 353.15 2161.45 353.15 2177.39 330.03 2229.64 330.03 2212.47 353.15"/><polygon class="cls-2" points="2180.48 396.23 2131.74 396.23 2146.27 375.16 2196.12 375.16 2180.48 396.23"/><polygon class="cls-2" points="2151.23 435.61 2104.59 435.61 2117.88 416.33 2165.55 416.33 2151.23 435.61"/><polygon class="cls-2" points="2124.39 471.74 2079.68 471.74 2091.88 454.04 2137.54 454.04 2124.39 471.74"/><polygon class="cls-2" points="2099.68 505.02 2056.73 505.02 2067.98 488.7 2111.8 488.7 2099.68 505.02"/><polygon class="cls-2" points="2631.06 58.28 2564.35 58.28 2598.14 18.46 2666.97 18.46 2631.06 58.28"/><polygon class="cls-2" points="2565.55 130.91 2502.71 130.91 2532.64 95.64 2597.36 95.64 2565.55 130.91"/><polygon class="cls-2" points="2507.22 195.6 2447.82 195.6 2474.52 164.13 2535.59 164.13 2507.22 195.6"/><polygon class="cls-2" points="2454.94 253.57 2398.62 253.57 2422.59 225.33 2480.41 225.33 2454.94 253.57"/><polygon class="cls-2" points="2407.82 305.81 2354.28 305.81 2375.91 280.32 2430.81 280.32 2407.82 305.81"/><polygon class="cls-2" points="2365.13 353.15 2314.11 353.15 2333.73 330.03 2385.98 330.03 2365.13 353.15"/><polygon class="cls-2" points="2326.28 396.23 2277.55 396.23 2295.42 375.16 2345.28 375.16 2326.28 396.23"/><polygon class="cls-2" points="2290.76 435.61 2244.13 435.61 2260.49 416.33 2308.15 416.33 2290.76 435.61"/><polygon class="cls-2" points="2258.18 471.74 2213.46 471.74 2228.49 454.04 2274.14 454.04 2258.18 471.74"/><polygon class="cls-2" points="2228.17 505.02 2185.22 505.02 2199.07 488.7 2242.88 488.7 2228.17 505.02"/><polygon class="cls-2" points="2830.64 58.28 2763.94 58.28 2804.06 18.46 2872.89 18.46 2830.64 58.28"/><polygon class="cls-2" points="2753.58 130.91 2690.73 130.91 2726.28 95.64 2791 95.64 2753.58 130.91"/><polygon class="cls-2" points="2684.95 195.6 2625.55 195.6 2657.25 164.13 2718.33 164.13 2684.95 195.6"/><polygon class="cls-2" points="2623.45 253.57 2567.13 253.57 2595.59 225.33 2653.41 225.33 2623.45 253.57"/><polygon class="cls-2" points="2568.01 305.81 2514.47 305.81 2540.16 280.32 2595.05 280.32 2568.01 305.81"/><polygon class="cls-2" points="2517.79 353.15 2466.77 353.15 2490.07 330.03 2542.32 330.03 2517.79 353.15"/><polygon class="cls-2" points="2472.08 396.23 2423.35 396.23 2444.58 375.16 2494.43 375.16 2472.08 396.23"/><polygon class="cls-2" points="2430.3 435.61 2383.66 435.61 2403.09 416.33 2450.75 416.33 2430.3 435.61"/><polygon class="cls-2" points="2391.96 471.74 2347.25 471.74 2365.09 454.04 2410.75 454.04 2391.96 471.74"/><polygon class="cls-2" points="2356.66 505.02 2313.71 505.02 2330.16 488.7 2373.97 488.7 2356.66 505.02"/><polygon class="cls-2" points="3030.23 58.28 2963.52 58.28 3009.98 18.46 3078.8 18.46 3030.23 58.28"/><polygon class="cls-2" points="2941.6 130.91 2878.76 130.91 2919.91 95.64 2984.64 95.64 2941.6 130.91"/><polygon class="cls-2" points="2862.68 195.6 2803.28 195.6 2839.99 164.13 2901.07 164.13 2862.68 195.6"/><polygon class="cls-2" points="2791.95 253.57 2735.63 253.57 2768.59 225.33 2826.41 225.33 2791.95 253.57"/><polygon class="cls-2" points="2728.2 305.81 2674.66 305.81 2704.4 280.32 2759.3 280.32 2728.2 305.81"/><polygon class="cls-2" points="2670.45 353.15 2619.42 353.15 2646.4 330.03 2698.66 330.03 2670.45 353.15"/><polygon class="cls-2" points="2617.88 396.23 2569.15 396.23 2593.73 375.16 2643.59 375.16 2617.88 396.23"/><polygon class="cls-2" points="2569.83 435.61 2523.2 435.61 2545.69 416.33 2593.35 416.33 2569.83 435.61"/><polygon class="cls-2" points="2525.75 471.74 2481.03 471.74 2501.69 454.04 2547.35 454.04 2525.75 471.74"/><polygon class="cls-2" points="2485.15 505.02 2442.2 505.02 2461.24 488.7 2505.06 488.7 2485.15 505.02"/><polygon class="cls-2" points="3040.41 195.6 2981.01 195.6 3022.73 164.13 3083.81 164.13 3040.41 195.6"/><polygon class="cls-2" points="2960.46 253.57 2904.14 253.57 2941.58 225.33 2999.41 225.33 2960.46 253.57"/><polygon class="cls-2" points="2888.39 305.81 2834.85 305.81 2868.65 280.32 2923.55 280.32 2888.39 305.81"/><polygon class="cls-2" points="2823.11 353.15 2772.08 353.15 2802.74 330.03 2854.99 330.03 2823.11 353.15"/><polygon class="cls-2" points="2763.68 396.23 2714.95 396.23 2742.89 375.16 2792.74 375.16 2763.68 396.23"/><polygon class="cls-2" points="2709.37 435.61 2662.73 435.61 2688.29 416.33 2735.96 416.33 2709.37 435.61"/><polygon class="cls-2" points="2659.53 471.74 2614.82 471.74 2638.29 454.04 2683.95 454.04 2659.53 471.74"/><polygon class="cls-2" points="2613.64 505.02 2570.69 505.02 2592.33 488.7 2636.14 488.7 2613.64 505.02"/><polygon class="cls-2" points="3048.58 305.81 2995.04 305.81 3032.9 280.32 3087.8 280.32 3048.58 305.81"/><polygon class="cls-2" points="2975.76 353.15 2924.74 353.15 2959.08 330.03 3011.33 330.03 2975.76 353.15"/><polygon class="cls-2" points="2909.49 396.23 2860.75 396.23 2892.04 375.16 2941.9 375.16 2909.49 396.23"/><polygon class="cls-2" points="2848.91 435.61 2802.27 435.61 2830.9 416.33 2878.56 416.33 2848.91 435.61"/><polygon class="cls-2" points="2793.32 471.74 2748.6 471.74 2774.9 454.04 2820.55 454.04 2793.32 471.74"/><polygon class="cls-2" points="2742.13 505.02 2699.18 505.02 2723.42 488.7 2767.23 488.7 2742.13 505.02"/><polygon class="cls-2" points="3055.29 396.23 3006.56 396.23 3041.2 375.16 3091.05 375.16 3055.29 396.23"/><polygon class="cls-2" points="2988.44 435.61 2941.8 435.61 2973.5 416.33 3021.16 416.33 2988.44 435.61"/><polygon class="cls-2" points="2927.1 471.74 2882.39 471.74 2911.5 454.04 2957.16 454.04 2927.1 471.74"/><polygon class="cls-2" points="2870.62 505.02 2827.67 505.02 2854.5 488.7 2898.32 488.7 2870.62 505.02"/><polygon class="cls-2" points="-6.56 633.8 -55.29 633.8 -91.05 654.87 -41.2 654.87 -6.56 633.8"/><polygon class="cls-2" points="58.2 594.42 11.56 594.42 -21.16 613.7 26.5 613.7 58.2 594.42"/><polygon class="cls-2" points="117.61 558.29 72.9 558.29 42.84 576 88.5 576 117.61 558.29"/><polygon class="cls-2" points="172.33 525.02 129.38 525.02 101.68 541.34 145.5 541.34 172.33 525.02"/><polygon class="cls-2" points="4.96 724.22 -48.58 724.22 -87.8 749.71 -32.9 749.71 4.96 724.22"/><polygon class="cls-2" points="75.26 676.89 24.24 676.89 -11.33 700.01 40.92 700.01 75.26 676.89"/><polygon class="cls-2" points="139.25 633.8 90.51 633.8 58.1 654.87 107.96 654.87 139.25 633.8"/><polygon class="cls-2" points="197.73 594.42 151.09 594.42 121.44 613.7 169.1 613.7 197.73 594.42"/><polygon class="cls-2" points="251.4 558.29 206.68 558.29 179.45 576 225.1 576 251.4 558.29"/><polygon class="cls-2" points="300.82 525.02 257.87 525.02 232.77 541.34 276.58 541.34 300.82 525.02"/><polygon class="cls-2" points="18.99 834.44 -40.41 834.44 -83.81 865.9 -22.73 865.9 18.99 834.44"/><polygon class="cls-2" points="95.86 776.47 39.54 776.47 0.59 804.71 58.42 804.71 95.86 776.47"/><polygon class="cls-2" points="165.15 724.22 111.61 724.22 76.45 749.71 131.35 749.71 165.15 724.22"/><polygon class="cls-2" points="227.92 676.89 176.89 676.89 145 700.01 197.26 700.01 227.92 676.89"/><polygon class="cls-2" points="285.05 633.8 236.32 633.8 207.26 654.87 257.11 654.87 285.05 633.8"/><polygon class="cls-2" points="337.27 594.42 290.63 594.42 264.04 613.7 311.71 613.7 337.27 594.42"/><polygon class="cls-2" points="385.18 558.29 340.47 558.29 316.05 576 361.71 576 385.18 558.29"/><polygon class="cls-2" points="429.31 525.02 386.36 525.02 363.86 541.34 407.67 541.34 429.31 525.02"/><polygon class="cls-2" points="36.48 971.76 -30.23 971.76 -78.81 1011.57 -9.98 1011.57 36.48 971.76"/><polygon class="cls-2" points="121.24 899.12 58.4 899.12 15.36 934.39 80.08 934.39 121.24 899.12"/><polygon class="cls-2" points="196.72 834.44 137.32 834.44 98.93 865.9 160.01 865.9 196.72 834.44"/><polygon class="cls-2" points="264.37 776.47 208.05 776.47 173.59 804.71 231.42 804.71 264.37 776.47"/><polygon class="cls-2" points="325.34 724.22 271.8 724.22 240.7 749.71 295.6 749.71 325.34 724.22"/><polygon class="cls-2" points="380.58 676.89 329.55 676.89 301.34 700.01 353.6 700.01 380.58 676.89"/><polygon class="cls-2" points="430.85 633.8 382.12 633.8 356.41 654.87 406.27 654.87 430.85 633.8"/><polygon class="cls-2" points="476.8 594.42 430.17 594.42 406.65 613.7 454.31 613.7 476.8 594.42"/><polygon class="cls-2" points="518.97 558.29 474.25 558.29 452.65 576 498.31 576 518.97 558.29"/><polygon class="cls-2" points="557.8 525.02 514.85 525.02 494.94 541.34 538.76 541.34 557.8 525.02"/><polygon class="cls-2" points="153.27 1053.91 82.19 1053.91 34.14 1099.21 107.62 1099.21 153.27 1053.91"/><polygon class="cls-2" points="236.06 971.76 169.36 971.76 127.11 1011.57 195.94 1011.57 236.06 971.76"/><polygon class="cls-2" points="309.27 899.12 246.42 899.12 209 934.39 273.72 934.39 309.27 899.12"/><polygon class="cls-2" points="374.45 834.44 315.05 834.44 281.67 865.9 342.75 865.9 374.45 834.44"/><polygon class="cls-2" points="432.88 776.47 376.56 776.47 346.59 804.71 404.42 804.71 432.88 776.47"/><polygon class="cls-2" points="485.53 724.22 431.99 724.22 404.95 749.71 459.84 749.71 485.53 724.22"/><polygon class="cls-2" points="533.23 676.89 482.21 676.89 457.68 700.01 509.93 700.01 533.23 676.89"/><polygon class="cls-2" points="576.65 633.8 527.92 633.8 505.57 654.87 555.42 654.87 576.65 633.8"/><polygon class="cls-2" points="616.34 594.42 569.7 594.42 549.25 613.7 596.91 613.7 616.34 594.42"/><polygon class="cls-2" points="652.75 558.29 608.04 558.29 589.25 576 634.91 576 652.75 558.29"/><polygon class="cls-2" points="686.29 525.02 643.34 525.02 626.03 541.34 669.84 541.34 686.29 525.02"/><polygon class="cls-2" points="365.93 1053.91 294.85 1053.91 254 1099.21 327.49 1099.21 365.93 1053.91"/><polygon class="cls-2" points="435.65 971.76 368.94 971.76 333.03 1011.57 401.86 1011.57 435.65 971.76"/><polygon class="cls-2" points="497.29 899.12 434.45 899.12 402.64 934.39 467.36 934.39 497.29 899.12"/><polygon class="cls-2" points="552.18 834.44 492.78 834.44 464.41 865.9 525.48 865.9 552.18 834.44"/><polygon class="cls-2" points="601.38 776.47 545.06 776.47 519.59 804.71 577.41 804.71 601.38 776.47"/><polygon class="cls-2" points="645.72 724.22 592.18 724.22 569.19 749.71 624.09 749.71 645.72 724.22"/><polygon class="cls-2" points="685.89 676.89 634.87 676.89 614.02 700.01 666.27 700.01 685.89 676.89"/><polygon class="cls-2" points="722.46 633.8 673.72 633.8 654.72 654.87 704.58 654.87 722.46 633.8"/><polygon class="cls-2" points="755.87 594.42 709.24 594.42 691.85 613.7 739.51 613.7 755.87 594.42"/><polygon class="cls-2" points="786.54 558.29 741.82 558.29 725.86 576 771.51 576 786.54 558.29"/><polygon class="cls-2" points="814.78 525.02 771.83 525.02 757.12 541.34 800.93 541.34 814.78 525.02"/><polygon class="cls-2" points="578.58 1053.91 507.51 1053.91 473.87 1099.21 547.35 1099.21 578.58 1053.91"/><polygon class="cls-2" points="635.23 971.76 568.52 971.76 538.95 1011.57 607.78 1011.57 635.23 971.76"/><polygon class="cls-2" points="685.32 899.12 622.47 899.12 596.27 934.39 661 934.39 685.32 899.12"/><polygon class="cls-2" points="729.91 834.44 670.51 834.44 647.14 865.9 708.22 865.9 729.91 834.44"/><polygon class="cls-2" points="769.89 776.47 713.57 776.47 692.59 804.71 750.41 804.71 769.89 776.47"/><polygon class="cls-2" points="805.91 724.22 752.37 724.22 733.44 749.71 788.34 749.71 805.91 724.22"/><polygon class="cls-2" points="838.55 676.89 787.53 676.89 770.36 700.01 822.61 700.01 838.55 676.89"/><polygon class="cls-2" points="868.26 633.8 819.52 633.8 803.88 654.87 853.73 654.87 868.26 633.8"/><polygon class="cls-2" points="895.41 594.42 848.77 594.42 834.46 613.7 882.12 613.7 895.41 594.42"/><polygon class="cls-2" points="920.33 558.29 875.61 558.29 862.46 576 908.12 576 920.33 558.29"/><polygon class="cls-2" points="943.27 525.02 900.32 525.02 888.2 541.34 932.02 541.34 943.27 525.02"/><polygon class="cls-2" points="791.24 1053.91 720.16 1053.91 693.73 1099.21 767.22 1099.21 791.24 1053.91"/><polygon class="cls-2" points="834.81 971.76 768.11 971.76 744.87 1011.57 813.7 1011.57 834.81 971.76"/><polygon class="cls-2" points="873.34 899.12 810.49 899.12 789.91 934.39 854.63 934.39 873.34 899.12"/><polygon class="cls-2" points="907.65 834.44 848.24 834.44 829.88 865.9 890.96 865.9 907.65 834.44"/><polygon class="cls-2" points="938.39 776.47 882.07 776.47 865.59 804.71 923.41 804.71 938.39 776.47"/><polygon class="cls-2" points="966.1 724.22 912.56 724.22 897.69 749.71 952.58 749.71 966.1 724.22"/><polygon class="cls-2" points="991.21 676.89 940.18 676.89 926.69 700.01 978.95 700.01 991.21 676.89"/><polygon class="cls-2" points="1014.06 633.8 965.33 633.8 953.03 654.87 1002.88 654.87 1014.06 633.8"/><polygon class="cls-2" points="1034.94 594.42 988.31 594.42 977.06 613.7 1024.72 613.7 1034.94 594.42"/><polygon class="cls-2" points="1054.11 558.29 1009.39 558.29 999.06 576 1044.72 576 1054.11 558.29"/><polygon class="cls-2" points="1071.76 525.02 1028.81 525.02 1019.29 541.34 1063.1 541.34 1071.76 525.02"/><polygon class="cls-2" points="1003.9 1053.91 932.82 1053.91 913.6 1099.21 987.08 1099.21 1003.9 1053.91"/><polygon class="cls-2" points="1034.4 971.76 967.69 971.76 950.79 1011.57 1019.62 1011.57 1034.4 971.76"/><polygon class="cls-2" points="1061.36 899.12 998.52 899.12 983.55 934.39 1048.27 934.39 1061.36 899.12"/><polygon class="cls-2" points="1085.38 834.44 1025.97 834.44 1012.62 865.9 1073.7 865.9 1085.38 834.44"/><polygon class="cls-2" points="1106.9 776.47 1050.58 776.47 1038.59 804.71 1096.41 804.71 1106.9 776.47"/><polygon class="cls-2" points="1126.29 724.22 1072.75 724.22 1061.93 749.71 1116.83 749.71 1126.29 724.22"/><polygon class="cls-2" points="1143.87 676.89 1092.84 676.89 1083.03 700.01 1135.28 700.01 1143.87 676.89"/><polygon class="cls-2" points="1159.86 633.8 1111.13 633.8 1102.19 654.87 1152.04 654.87 1159.86 633.8"/><polygon class="cls-2" points="1174.48 594.42 1127.84 594.42 1119.66 613.7 1167.32 613.7 1174.48 594.42"/><polygon class="cls-2" points="1187.89 558.29 1143.18 558.29 1135.66 576 1181.32 576 1187.89 558.29"/><polygon class="cls-2" points="1200.25 525.02 1157.3 525.02 1150.38 541.34 1194.19 541.34 1200.25 525.02"/><polygon class="cls-2" points="1216.55 1053.91 1145.48 1053.91 1133.46 1099.21 1206.95 1099.21 1216.55 1053.91"/><polygon class="cls-2" points="1233.98 971.76 1167.27 971.76 1156.71 1011.57 1225.53 1011.57 1233.98 971.76"/><polygon class="cls-2" points="1249.39 899.12 1186.54 899.12 1177.18 934.39 1241.9 934.39 1249.39 899.12"/><polygon class="cls-2" points="1263.11 834.44 1203.7 834.44 1195.36 865.9 1256.43 865.9 1263.11 834.44"/><polygon class="cls-2" points="1275.4 776.47 1219.08 776.47 1211.59 804.71 1269.41 804.71 1275.4 776.47"/><polygon class="cls-2" points="1286.48 724.22 1232.94 724.22 1226.18 749.71 1281.08 749.71 1286.48 724.22"/><polygon class="cls-2" points="1296.53 676.89 1245.5 676.89 1239.37 700.01 1291.62 700.01 1296.53 676.89"/><polygon class="cls-2" points="1305.66 633.8 1256.93 633.8 1251.34 654.87 1301.19 654.87 1305.66 633.8"/><polygon class="cls-2" points="1314.02 594.42 1267.38 594.42 1262.26 613.7 1309.93 613.7 1314.02 594.42"/><polygon class="cls-2" points="1321.68 558.29 1276.96 558.29 1272.27 576 1317.92 576 1321.68 558.29"/><polygon class="cls-2" points="1328.74 525.02 1285.79 525.02 1281.46 541.34 1325.28 541.34 1328.74 525.02"/><polygon class="cls-2" points="1429.21 1053.91 1358.13 1053.91 1353.32 1099.21 1426.81 1099.21 1429.21 1053.91"/><polygon class="cls-2" points="1433.56 971.76 1366.86 971.76 1362.63 1011.57 1431.45 1011.57 1433.56 971.76"/><polygon class="cls-2" points="1437.41 899.12 1374.57 899.12 1370.82 934.39 1435.54 934.39 1437.41 899.12"/><polygon class="cls-2" points="1440.84 834.44 1381.43 834.44 1378.09 865.9 1439.17 865.9 1440.84 834.44"/><polygon class="cls-2" points="1443.91 776.47 1387.59 776.47 1384.59 804.71 1442.41 804.71 1443.91 776.47"/><polygon class="cls-2" points="1446.67 724.22 1393.13 724.22 1390.43 749.71 1445.33 749.71 1446.67 724.22"/><polygon class="cls-2" points="1449.18 676.89 1398.16 676.89 1395.7 700.01 1447.96 700.01 1449.18 676.89"/><polygon class="cls-2" points="1451.46 633.8 1402.73 633.8 1400.5 654.87 1450.35 654.87 1451.46 633.8"/><polygon class="cls-2" points="1453.55 594.42 1406.91 594.42 1404.87 613.7 1452.53 613.7 1453.55 594.42"/><polygon class="cls-2" points="1455.46 558.29 1410.75 558.29 1408.87 576 1454.53 576 1455.46 558.29"/><polygon class="cls-2" points="1457.23 525.02 1414.28 525.02 1412.55 541.34 1456.36 541.34 1457.23 525.02"/><polygon class="cls-2" points="1641.87 1053.91 1570.79 1053.91 1573.19 1099.21 1646.68 1099.21 1641.87 1053.91"/><polygon class="cls-2" points="1633.15 971.76 1566.44 971.76 1568.55 1011.57 1637.37 1011.57 1633.15 971.76"/><polygon class="cls-2" points="1625.43 899.12 1562.59 899.12 1564.46 934.39 1629.18 934.39 1625.43 899.12"/><polygon class="cls-2" points="1618.57 834.44 1559.16 834.44 1560.83 865.9 1621.91 865.9 1618.57 834.44"/><polygon class="cls-2" points="1612.41 776.47 1556.09 776.47 1557.59 804.71 1615.41 804.71 1612.41 776.47"/><polygon class="cls-2" points="1606.87 724.22 1553.33 724.22 1554.67 749.71 1609.57 749.71 1606.87 724.22"/><polygon class="cls-2" points="1601.84 676.89 1550.82 676.89 1552.04 700.01 1604.3 700.01 1601.84 676.89"/><polygon class="cls-2" points="1597.27 633.8 1548.54 633.8 1549.65 654.87 1599.5 654.87 1597.27 633.8"/><polygon class="cls-2" points="1593.09 594.42 1546.45 594.42 1547.47 613.7 1595.13 613.7 1593.09 594.42"/><polygon class="cls-2" points="1589.25 558.29 1544.54 558.29 1545.47 576 1591.13 576 1589.25 558.29"/><polygon class="cls-2" points="1585.72 525.02 1542.77 525.02 1543.64 541.34 1587.45 541.34 1585.72 525.02"/><polygon class="cls-2" points="1854.52 1053.91 1783.45 1053.91 1793.05 1099.21 1866.54 1099.21 1854.52 1053.91"/><polygon class="cls-2" points="1832.73 971.76 1766.02 971.76 1774.47 1011.57 1843.29 1011.57 1832.73 971.76"/><polygon class="cls-2" points="1813.46 899.12 1750.61 899.12 1758.1 934.39 1822.82 934.39 1813.46 899.12"/><polygon class="cls-2" points="1796.3 834.44 1736.89 834.44 1743.57 865.9 1804.64 865.9 1796.3 834.44"/><polygon class="cls-2" points="1780.92 776.47 1724.6 776.47 1730.59 804.71 1788.41 804.71 1780.92 776.47"/><polygon class="cls-2" points="1767.06 724.22 1713.52 724.22 1718.92 749.71 1773.82 749.71 1767.06 724.22"/><polygon class="cls-2" points="1754.5 676.89 1703.47 676.89 1708.38 700.01 1760.63 700.01 1754.5 676.89"/><polygon class="cls-2" points="1743.07 633.8 1694.34 633.8 1698.81 654.87 1748.66 654.87 1743.07 633.8"/><polygon class="cls-2" points="1732.62 594.42 1685.98 594.42 1690.07 613.7 1737.74 613.7 1732.62 594.42"/><polygon class="cls-2" points="1723.04 558.29 1678.32 558.29 1682.08 576 1727.73 576 1723.04 558.29"/><polygon class="cls-2" points="1714.21 525.02 1671.26 525.02 1674.72 541.34 1718.54 541.34 1714.21 525.02"/><polygon class="cls-2" points="2067.18 1053.91 1996.1 1053.91 2012.92 1099.21 2086.41 1099.21 2067.18 1053.91"/><polygon class="cls-2" points="2032.31 971.76 1965.6 971.76 1980.38 1011.57 2049.21 1011.57 2032.31 971.76"/><polygon class="cls-2" points="2001.48 899.12 1938.64 899.12 1951.73 934.39 2016.45 934.39 2001.48 899.12"/><polygon class="cls-2" points="1974.03 834.44 1914.62 834.44 1926.31 865.9 1987.38 865.9 1974.03 834.44"/><polygon class="cls-2" points="1949.42 776.47 1893.1 776.47 1903.59 804.71 1961.41 804.71 1949.42 776.47"/><polygon class="cls-2" points="1927.25 724.22 1873.71 724.22 1883.17 749.71 1938.07 749.71 1927.25 724.22"/><polygon class="cls-2" points="1907.16 676.89 1856.13 676.89 1864.72 700.01 1916.97 700.01 1907.16 676.89"/><polygon class="cls-2" points="1888.87 633.8 1840.14 633.8 1847.96 654.87 1897.81 654.87 1888.87 633.8"/><polygon class="cls-2" points="1872.16 594.42 1825.52 594.42 1832.68 613.7 1880.34 613.7 1872.16 594.42"/><polygon class="cls-2" points="1856.82 558.29 1812.11 558.29 1818.68 576 1864.34 576 1856.82 558.29"/><polygon class="cls-2" points="1842.7 525.02 1799.75 525.02 1805.81 541.34 1849.62 541.34 1842.7 525.02"/><polygon class="cls-2" points="2279.84 1053.91 2208.76 1053.91 2232.78 1099.21 2306.27 1099.21 2279.84 1053.91"/><polygon class="cls-2" points="2231.89 971.76 2165.19 971.76 2186.3 1011.57 2255.13 1011.57 2231.89 971.76"/><polygon class="cls-2" points="2189.51 899.12 2126.66 899.12 2145.37 934.39 2210.09 934.39 2189.51 899.12"/><polygon class="cls-2" points="2151.76 834.44 2092.35 834.44 2109.04 865.9 2170.12 865.9 2151.76 834.44"/><polygon class="cls-2" points="2117.93 776.47 2061.61 776.47 2076.59 804.71 2134.41 804.71 2117.93 776.47"/><polygon class="cls-2" points="2087.44 724.22 2033.9 724.22 2047.42 749.71 2102.31 749.71 2087.44 724.22"/><polygon class="cls-2" points="2059.82 676.89 2008.79 676.89 2021.05 700.01 2073.31 700.01 2059.82 676.89"/><polygon class="cls-2" points="2034.67 633.8 1985.94 633.8 1997.12 654.87 2046.97 654.87 2034.67 633.8"/><polygon class="cls-2" points="2011.69 594.42 1965.06 594.42 1975.28 613.7 2022.94 613.7 2011.69 594.42"/><polygon class="cls-2" points="1990.61 558.29 1945.89 558.29 1955.28 576 2000.94 576 1990.61 558.29"/><polygon class="cls-2" points="1971.19 525.02 1928.24 525.02 1936.9 541.34 1980.71 541.34 1971.19 525.02"/><polygon class="cls-2" points="2492.49 1053.91 2421.42 1053.91 2452.65 1099.21 2526.13 1099.21 2492.49 1053.91"/><polygon class="cls-2" points="2431.48 971.76 2364.77 971.76 2392.22 1011.57 2461.05 1011.57 2431.48 971.76"/><polygon class="cls-2" points="2377.53 899.12 2314.69 899.12 2339.01 934.39 2403.73 934.39 2377.53 899.12"/><polygon class="cls-2" points="2329.49 834.44 2270.09 834.44 2291.78 865.9 2352.86 865.9 2329.49 834.44"/><polygon class="cls-2" points="2286.43 776.47 2230.11 776.47 2249.59 804.71 2307.41 804.71 2286.43 776.47"/><polygon class="cls-2" points="2247.63 724.22 2194.09 724.22 2211.66 749.71 2266.56 749.71 2247.63 724.22"/><polygon class="cls-2" points="2212.47 676.89 2161.45 676.89 2177.39 700.01 2229.64 700.01 2212.47 676.89"/><polygon class="cls-2" points="2180.48 633.8 2131.74 633.8 2146.27 654.87 2196.12 654.87 2180.48 633.8"/><polygon class="cls-2" points="2151.23 594.42 2104.59 594.42 2117.88 613.7 2165.55 613.7 2151.23 594.42"/><polygon class="cls-2" points="2124.39 558.29 2079.68 558.29 2091.88 576 2137.54 576 2124.39 558.29"/><polygon class="cls-2" points="2099.68 525.02 2056.73 525.02 2067.98 541.34 2111.8 541.34 2099.68 525.02"/><polygon class="cls-2" points="2705.15 1053.91 2634.07 1053.91 2672.51 1099.21 2746 1099.21 2705.15 1053.91"/><polygon class="cls-2" points="2631.06 971.76 2564.35 971.76 2598.14 1011.57 2666.97 1011.57 2631.06 971.76"/><polygon class="cls-2" points="2565.55 899.12 2502.71 899.12 2532.64 934.39 2597.36 934.39 2565.55 899.12"/><polygon class="cls-2" points="2507.22 834.44 2447.82 834.44 2474.52 865.9 2535.59 865.9 2507.22 834.44"/><polygon class="cls-2" points="2454.94 776.47 2398.62 776.47 2422.59 804.71 2480.41 804.71 2454.94 776.47"/><polygon class="cls-2" points="2407.82 724.22 2354.28 724.22 2375.91 749.71 2430.81 749.71 2407.82 724.22"/><polygon class="cls-2" points="2365.13 676.89 2314.11 676.89 2333.73 700.01 2385.98 700.01 2365.13 676.89"/><polygon class="cls-2" points="2326.28 633.8 2277.55 633.8 2295.42 654.87 2345.28 654.87 2326.28 633.8"/><polygon class="cls-2" points="2290.76 594.42 2244.13 594.42 2260.49 613.7 2308.15 613.7 2290.76 594.42"/><polygon class="cls-2" points="2258.18 558.29 2213.46 558.29 2228.49 576 2274.14 576 2258.18 558.29"/><polygon class="cls-2" points="2228.17 525.02 2185.22 525.02 2199.07 541.34 2242.88 541.34 2228.17 525.02"/><polygon class="cls-2" points="2917.81 1053.91 2846.73 1053.91 2892.38 1099.21 2965.86 1099.21 2917.81 1053.91"/><polygon class="cls-2" points="2830.64 971.76 2763.94 971.76 2804.06 1011.57 2872.89 1011.57 2830.64 971.76"/><polygon class="cls-2" points="2753.58 899.12 2690.73 899.12 2726.28 934.39 2791 934.39 2753.58 899.12"/><polygon class="cls-2" points="2684.95 834.44 2625.55 834.44 2657.25 865.9 2718.33 865.9 2684.95 834.44"/><polygon class="cls-2" points="2623.45 776.47 2567.13 776.47 2595.59 804.71 2653.41 804.71 2623.45 776.47"/><polygon class="cls-2" points="2568.01 724.22 2514.47 724.22 2540.16 749.71 2595.05 749.71 2568.01 724.22"/><polygon class="cls-2" points="2517.79 676.89 2466.77 676.89 2490.07 700.01 2542.32 700.01 2517.79 676.89"/><polygon class="cls-2" points="2472.08 633.8 2423.35 633.8 2444.58 654.87 2494.43 654.87 2472.08 633.8"/><polygon class="cls-2" points="2430.3 594.42 2383.66 594.42 2403.09 613.7 2450.75 613.7 2430.3 594.42"/><polygon class="cls-2" points="2391.96 558.29 2347.25 558.29 2365.09 576 2410.75 576 2391.96 558.29"/><polygon class="cls-2" points="2356.66 525.02 2313.71 525.02 2330.16 541.34 2373.97 541.34 2356.66 525.02"/><polygon class="cls-2" points="3030.23 971.76 2963.52 971.76 3009.98 1011.57 3078.8 1011.57 3030.23 971.76"/><polygon class="cls-2" points="2941.6 899.12 2878.76 899.12 2919.91 934.39 2984.64 934.39 2941.6 899.12"/><polygon class="cls-2" points="2862.68 834.44 2803.28 834.44 2839.99 865.9 2901.07 865.9 2862.68 834.44"/><polygon class="cls-2" points="2791.95 776.47 2735.63 776.47 2768.59 804.71 2826.41 804.71 2791.95 776.47"/><polygon class="cls-2" points="2728.2 724.22 2674.66 724.22 2704.4 749.71 2759.3 749.71 2728.2 724.22"/><polygon class="cls-2" points="2670.45 676.89 2619.42 676.89 2646.4 700.01 2698.66 700.01 2670.45 676.89"/><polygon class="cls-2" points="2617.88 633.8 2569.15 633.8 2593.73 654.87 2643.59 654.87 2617.88 633.8"/><polygon class="cls-2" points="2569.83 594.42 2523.2 594.42 2545.69 613.7 2593.35 613.7 2569.83 594.42"/><polygon class="cls-2" points="2525.75 558.29 2481.03 558.29 2501.69 576 2547.35 576 2525.75 558.29"/><polygon class="cls-2" points="2485.15 525.02 2442.2 525.02 2461.24 541.34 2505.06 541.34 2485.15 525.02"/><polygon class="cls-2" points="3040.41 834.44 2981.01 834.44 3022.73 865.9 3083.81 865.9 3040.41 834.44"/><polygon class="cls-2" points="2960.46 776.47 2904.14 776.47 2941.58 804.71 2999.41 804.71 2960.46 776.47"/><polygon class="cls-2" points="2888.39 724.22 2834.85 724.22 2868.65 749.71 2923.55 749.71 2888.39 724.22"/><polygon class="cls-2" points="2823.11 676.89 2772.08 676.89 2802.74 700.01 2854.99 700.01 2823.11 676.89"/><polygon class="cls-2" points="2763.68 633.8 2714.95 633.8 2742.89 654.87 2792.74 654.87 2763.68 633.8"/><polygon class="cls-2" points="2709.37 594.42 2662.73 594.42 2688.29 613.7 2735.96 613.7 2709.37 594.42"/><polygon class="cls-2" points="2659.53 558.29 2614.82 558.29 2638.29 576 2683.95 576 2659.53 558.29"/><polygon class="cls-2" points="2613.64 525.02 2570.69 525.02 2592.33 541.34 2636.14 541.34 2613.64 525.02"/><polygon class="cls-2" points="3048.58 724.22 2995.04 724.22 3032.9 749.71 3087.8 749.71 3048.58 724.22"/><polygon class="cls-2" points="2975.76 676.89 2924.74 676.89 2959.08 700.01 3011.33 700.01 2975.76 676.89"/><polygon class="cls-2" points="2909.49 633.8 2860.75 633.8 2892.04 654.87 2941.9 654.87 2909.49 633.8"/><polygon class="cls-2" points="2848.91 594.42 2802.27 594.42 2830.9 613.7 2878.56 613.7 2848.91 594.42"/><polygon class="cls-2" points="2793.32 558.29 2748.6 558.29 2774.9 576 2820.55 576 2793.32 558.29"/><polygon class="cls-2" points="2742.13 525.02 2699.18 525.02 2723.42 541.34 2767.23 541.34 2742.13 525.02"/><polygon class="cls-2" points="3055.29 633.8 3006.56 633.8 3041.2 654.87 3091.05 654.87 3055.29 633.8"/><polygon class="cls-2" points="2988.44 594.42 2941.8 594.42 2973.5 613.7 3021.16 613.7 2988.44 594.42"/><polygon class="cls-2" points="2927.1 558.29 2882.39 558.29 2911.5 576 2957.16 576 2927.1 558.29"/><polygon class="cls-2" points="2870.62 525.02 2827.67 525.02 2854.5 541.34 2898.32 541.34 2870.62 525.02"/></g></g></svg>