<svg id="all_main_copy" data-name="all main copy" xmlns="http://www.w3.org/2000/svg" viewBox="0 0 3000 1080"><defs><style>.cls-1{fill:#0f0f11;}.cls-2{fill:#252529;opacity:0.35;}</style></defs><g id="this_copy_4" data-name="this copy 4"><rect class="cls-1" width="3000" height="1080"/></g><g id="Layer_34" data-name="Layer 34"><rect class="cls-2" x="1595.36" y="-10.22" width="10.29" height="10.29"/><rect class="cls-2" x="1665.54" y="4.99" width="10.29" height="10.29"/><rect class="cls-2" x="1735.1" y="18.47" width="10.29" height="10.29"/><rect class="cls-2" x="1804.02" y="30.27" width="10.29" height="10.29"/><rect class="cls-2" x="1872.24" y="40.46" width="10.29" height="10.29"/><rect class="cls-2" x="1939.75" y="49.1" width="10.29" height="10.29"/><rect class="cls-2" x="2006.5" y="56.25" width="10.29" height="10.29"/><rect class="cls-2" x="2072.46" y="61.97" width="10.29" height="10.29"/><rect class="cls-2" x="2137.59" y="66.31" width="10.29" height="10.29"/><rect class="cls-2" x="2201.86" y="69.34" width="10.29" height="10.29"/><rect class="cls-2" x="2265.23" y="71.11" width="10.29" height="10.29"/><rect class="cls-2" x="2327.67" y="71.69" width="10.29" height="10.29"/><rect class="cls-2" x="2389.15" y="71.14" width="10.29" height="10.29"/><rect class="cls-2" x="2449.63" y="69.51" width="10.29" height="10.29"/><rect class="cls-2" x="2509.07" y="66.86" width="10.29" height="10.29"/><rect class="cls-2" x="2567.43" y="63.26" width="10.29" height="10.29"/><rect class="cls-2" x="2624.7" y="58.77" width="10.29" height="10.29"/><rect class="cls-2" x="2680.82" y="53.44" width="10.29" height="10.29"/><rect class="cls-2" x="2735.76" y="47.33" width="10.29" height="10.29"/><rect class="cls-2" x="2789.5" y="40.51" width="10.29" height="10.29"/><rect class="cls-2" x="2841.98" y="33.03" width="10.29" height="10.29"/><rect class="cls-2" x="2893.19" y="24.95" width="10.29" height="10.29"/><rect class="cls-2" x="2943.08" y="16.34" width="10.29" height="10.29"/><rect class="cls-2" x="2991.62" y="7.25" width="10.29" height="10.29"/><rect class="cls-2" x="1230.33" y="1.43" width="10.29" height="10.29"/><rect class="cls-2" x="1305.44" y="21.26" width="10.29" height="10.29"/><rect class="cls-2" x="1381.45" y="43.22" width="10.29" height="10.29"/><rect class="cls-2" x="1453.29" y="63.98" width="10.29" height="10.29"/><rect class="cls-2" x="1524.6" y="82.83" width="10.29" height="10.29"/><rect class="cls-2" x="1595.36" y="99.83" width="10.29" height="10.29"/><rect class="cls-2" x="1665.54" y="115.04" width="10.29" height="10.29"/><rect class="cls-2" x="1735.1" y="128.51" width="10.29" height="10.29"/><rect class="cls-2" x="1804.02" y="140.32" width="10.29" height="10.29"/><rect class="cls-2" x="1872.24" y="150.51" width="10.29" height="10.29"/><rect class="cls-2" x="1939.75" y="159.15" width="10.29" height="10.29"/><rect class="cls-2" x="2006.5" y="166.3" width="10.29" height="10.29"/><rect class="cls-2" x="2072.46" y="172.01" width="10.29" height="10.29"/><rect class="cls-2" x="2137.59" y="176.36" width="10.29" height="10.29"/><rect class="cls-2" x="2201.86" y="179.38" width="10.29" height="10.29"/><rect class="cls-2" x="2265.23" y="181.16" width="10.29" height="10.29"/><rect class="cls-2" x="2327.67" y="181.74" width="10.29" height="10.29"/><rect class="cls-2" x="2389.15" y="181.18" width="10.29" height="10.29"/><rect class="cls-2" x="2449.63" y="179.55" width="10.29" height="10.29"/><rect class="cls-2" x="2509.07" y="176.91" width="10.29" height="10.29"/><rect class="cls-2" x="2567.43" y="173.31" width="10.29" height="10.29"/><rect class="cls-2" x="2624.7" y="168.82" width="10.29" height="10.29"/><rect class="cls-2" x="2680.82" y="163.49" width="10.29" height="10.29"/><rect class="cls-2" x="2735.76" y="157.38" width="10.29" height="10.29"/><rect class="cls-2" x="2789.5" y="150.56" width="10.29" height="10.29"/><rect class="cls-2" x="2841.98" y="143.08" width="10.29" height="10.29"/><rect class="cls-2" x="2893.19" y="135" width="10.29" height="10.29"/><rect class="cls-2" x="2943.08" y="126.39" width="10.29" height="10.29"/><rect class="cls-2" x="2991.62" y="117.29" width="10.29" height="10.29"/><rect class="cls-2" x="12.6" y="45.05" width="10.29" height="10.29"/><rect class="cls-2" x="65.19" y="37.86" width="10.29" height="10.29"/><rect class="cls-2" x="119.22" y="31.46" width="10.29" height="10.29"/><rect class="cls-2" x="174.65" y="25.92" width="10.29" height="10.29"/><rect class="cls-2" x="231.47" y="21.31" width="10.29" height="10.29"/><rect class="cls-2" x="289.63" y="17.7" width="10.29" height="10.29"/><rect class="cls-2" x="349.12" y="15.15" width="10.29" height="10.29"/><rect class="cls-2" x="409.91" y="13.75" width="10.29" height="10.29"/><rect class="cls-2" x="471.96" y="13.56" width="10.29" height="10.29"/><rect class="cls-2" x="535.26" y="14.64" width="10.29" height="10.29"/><rect class="cls-2" x="599.77" y="17.08" width="10.29" height="10.29"/><rect class="cls-2" x="665.46" y="20.94" width="10.29" height="10.29"/><rect class="cls-2" x="732.31" y="26.3" width="10.29" height="10.29"/><rect class="cls-2" x="800.29" y="33.21" width="10.29" height="10.29"/><rect class="cls-2" x="869.37" y="41.76" width="10.29" height="10.29"/><rect class="cls-2" x="939.53" y="52.02" width="10.29" height="10.29"/><rect class="cls-2" x="1010.73" y="64.04" width="10.29" height="10.29"/><rect class="cls-2" x="1082.95" y="77.92" width="10.29" height="10.29"/><rect class="cls-2" x="1156.16" y="93.71" width="10.29" height="10.29"/><rect class="cls-2" x="1230.33" y="111.48" width="10.29" height="10.29"/><rect class="cls-2" x="1305.44" y="131.31" width="10.29" height="10.29"/><rect class="cls-2" x="1381.45" y="153.27" width="10.29" height="10.29"/><rect class="cls-2" x="1453.29" y="174.03" width="10.29" height="10.29"/><rect class="cls-2" x="1524.6" y="192.88" width="10.29" height="10.29"/><rect class="cls-2" x="1595.36" y="209.88" width="10.29" height="10.29"/><rect class="cls-2" x="1665.54" y="225.09" width="10.29" height="10.29"/><rect class="cls-2" x="1735.1" y="238.56" width="10.29" height="10.29"/><rect class="cls-2" x="1804.02" y="250.37" width="10.29" height="10.29"/><rect class="cls-2" x="1872.24" y="260.56" width="10.29" height="10.29"/><rect class="cls-2" x="1939.75" y="269.2" width="10.29" height="10.29"/><rect class="cls-2" x="2006.5" y="276.35" width="10.29" height="10.29"/><rect class="cls-2" x="2072.46" y="282.06" width="10.29" height="10.29"/><rect class="cls-2" x="2137.59" y="286.4" width="10.29" height="10.29"/><rect class="cls-2" x="2201.86" y="289.43" width="10.29" height="10.29"/><rect class="cls-2" x="2265.23" y="291.2" width="10.29" height="10.29"/><rect class="cls-2" x="2327.67" y="291.79" width="10.29" height="10.29"/><rect class="cls-2" x="2389.15" y="291.23" width="10.29" height="10.29"/><rect class="cls-2" x="2449.63" y="289.6" width="10.29" height="10.29"/><rect class="cls-2" x="2509.07" y="286.96" width="10.29" height="10.29"/><rect class="cls-2" x="2567.43" y="283.36" width="10.29" height="10.29"/><rect class="cls-2" x="2624.7" y="278.86" width="10.29" height="10.29"/><rect class="cls-2" x="2680.82" y="273.53" width="10.29" height="10.29"/><rect class="cls-2" x="2735.76" y="267.43" width="10.29" height="10.29"/><rect class="cls-2" x="2789.5" y="260.6" width="10.29" height="10.29"/><rect class="cls-2" x="2841.98" y="253.12" width="10.29" height="10.29"/><rect class="cls-2" x="2893.19" y="245.05" width="10.29" height="10.29"/><rect class="cls-2" x="2943.08" y="236.43" width="10.29" height="10.29"/><rect class="cls-2" x="2991.62" y="227.34" width="10.29" height="10.29"/><rect class="cls-2" x="12.6" y="155.1" width="10.29" height="10.29"/><rect class="cls-2" x="65.19" y="147.91" width="10.29" height="10.29"/><rect class="cls-2" x="119.22" y="141.51" width="10.29" height="10.29"/><rect class="cls-2" x="174.65" y="135.97" width="10.29" height="10.29"/><rect class="cls-2" x="231.47" y="131.36" width="10.29" height="10.29"/><rect class="cls-2" x="289.63" y="127.75" width="10.29" height="10.29"/><rect class="cls-2" x="349.12" y="125.2" width="10.29" height="10.29"/><rect class="cls-2" x="409.91" y="123.8" width="10.29" height="10.29"/><rect class="cls-2" x="471.96" y="123.6" width="10.29" height="10.29"/><rect class="cls-2" x="535.26" y="124.69" width="10.29" height="10.29"/><rect class="cls-2" x="599.77" y="127.13" width="10.29" height="10.29"/><rect class="cls-2" x="665.46" y="130.99" width="10.29" height="10.29"/><rect class="cls-2" x="732.31" y="136.35" width="10.29" height="10.29"/><rect class="cls-2" x="800.29" y="143.26" width="10.29" height="10.29"/><rect class="cls-2" x="869.37" y="151.81" width="10.29" height="10.29"/><rect class="cls-2" x="939.53" y="162.06" width="10.29" height="10.29"/><rect class="cls-2" x="1010.73" y="174.09" width="10.29" height="10.29"/><rect class="cls-2" x="1082.95" y="187.96" width="10.29" height="10.29"/><rect class="cls-2" x="1156.16" y="203.75" width="10.29" height="10.29"/><rect class="cls-2" x="1230.33" y="221.53" width="10.29" height="10.29"/><rect class="cls-2" x="1305.44" y="241.36" width="10.29" height="10.29"/><rect class="cls-2" x="1381.45" y="263.31" width="10.29" height="10.29"/><rect class="cls-2" x="1453.29" y="284.08" width="10.29" height="10.29"/><rect class="cls-2" x="1524.6" y="302.93" width="10.29" height="10.29"/><rect class="cls-2" x="1595.36" y="319.93" width="10.29" height="10.29"/><rect class="cls-2" x="1665.54" y="335.13" width="10.29" height="10.29"/><rect class="cls-2" x="1735.1" y="348.61" width="10.29" height="10.29"/><rect class="cls-2" x="1804.02" y="360.41" width="10.29" height="10.29"/><rect class="cls-2" x="1872.24" y="370.61" width="10.29" height="10.29"/><rect class="cls-2" x="1939.75" y="379.25" width="10.29" height="10.29"/><rect class="cls-2" x="2006.5" y="386.39" width="10.29" height="10.29"/><rect class="cls-2" x="2072.46" y="392.11" width="10.29" height="10.29"/><rect class="cls-2" x="2137.59" y="396.45" width="10.29" height="10.29"/><rect class="cls-2" x="2201.86" y="399.48" width="10.29" height="10.29"/><rect class="cls-2" x="2265.23" y="401.25" width="10.29" height="10.29"/><rect class="cls-2" x="2327.67" y="401.83" width="10.29" height="10.29"/><rect class="cls-2" x="2389.15" y="401.28" width="10.29" height="10.29"/><rect class="cls-2" x="2449.63" y="399.65" width="10.29" height="10.29"/><rect class="cls-2" x="2509.07" y="397.01" width="10.29" height="10.29"/><rect class="cls-2" x="2567.43" y="393.41" width="10.29" height="10.29"/><rect class="cls-2" x="2624.7" y="388.91" width="10.29" height="10.29"/><rect class="cls-2" x="2680.82" y="383.58" width="10.29" height="10.29"/><rect class="cls-2" x="2735.76" y="377.48" width="10.29" height="10.29"/><rect class="cls-2" x="2789.5" y="370.65" width="10.29" height="10.29"/><rect class="cls-2" x="2841.98" y="363.17" width="10.29" height="10.29"/><rect class="cls-2" x="2893.19" y="355.1" width="10.29" height="10.29"/><rect class="cls-2" x="2943.08" y="346.48" width="10.29" height="10.29"/><rect class="cls-2" x="2991.62" y="337.39" width="10.29" height="10.29"/><rect class="cls-2" x="12.6" y="265.14" width="10.29" height="10.29"/><rect class="cls-2" x="65.19" y="257.96" width="10.29" height="10.29"/><rect class="cls-2" x="119.22" y="251.56" width="10.29" height="10.29"/><rect class="cls-2" x="174.65" y="246.02" width="10.29" height="10.29"/><rect class="cls-2" x="231.47" y="241.41" width="10.29" height="10.29"/><rect class="cls-2" x="289.63" y="237.79" width="10.29" height="10.29"/><rect class="cls-2" x="349.12" y="235.25" width="10.29" height="10.29"/><rect class="cls-2" x="409.91" y="233.85" width="10.29" height="10.29"/><rect class="cls-2" x="471.96" y="233.65" width="10.29" height="10.29"/><rect class="cls-2" x="535.26" y="234.74" width="10.29" height="10.29"/><rect class="cls-2" x="599.77" y="237.18" width="10.29" height="10.29"/><rect class="cls-2" x="665.46" y="241.04" width="10.29" height="10.29"/><rect class="cls-2" x="732.31" y="246.39" width="10.29" height="10.29"/><rect class="cls-2" x="800.29" y="253.31" width="10.29" height="10.29"/><rect class="cls-2" x="869.37" y="261.86" width="10.29" height="10.29"/><rect class="cls-2" x="939.53" y="272.11" width="10.29" height="10.29"/><rect class="cls-2" x="1010.73" y="284.14" width="10.29" height="10.29"/><rect class="cls-2" x="1082.95" y="298.01" width="10.29" height="10.29"/><rect class="cls-2" x="1156.16" y="313.8" width="10.29" height="10.29"/><rect class="cls-2" x="1230.33" y="331.57" width="10.29" height="10.29"/><rect class="cls-2" x="1305.44" y="351.4" width="10.29" height="10.29"/><rect class="cls-2" x="1381.45" y="373.36" width="10.29" height="10.29"/><rect class="cls-2" x="1453.29" y="394.13" width="10.29" height="10.29"/><rect class="cls-2" x="1524.6" y="412.98" width="10.29" height="10.29"/><rect class="cls-2" x="1595.36" y="429.97" width="10.29" height="10.29"/><rect class="cls-2" x="1665.54" y="445.18" width="10.29" height="10.29"/><rect class="cls-2" x="1735.1" y="458.66" width="10.29" height="10.29"/><rect class="cls-2" x="1804.02" y="470.46" width="10.29" height="10.29"/><rect class="cls-2" x="1872.24" y="480.65" width="10.29" height="10.29"/><rect class="cls-2" x="1939.75" y="489.29" width="10.29" height="10.29"/><rect class="cls-2" x="2006.5" y="496.44" width="10.29" height="10.29"/><rect class="cls-2" x="2072.46" y="502.16" width="10.29" height="10.29"/><rect class="cls-2" x="2137.59" y="506.5" width="10.29" height="10.29"/><rect class="cls-2" x="2201.86" y="509.53" width="10.29" height="10.29"/><rect class="cls-2" x="2265.23" y="511.3" width="10.29" height="10.29"/><rect class="cls-2" x="2327.67" y="511.88" width="10.29" height="10.29"/><rect class="cls-2" x="2389.15" y="511.33" width="10.29" height="10.29"/><rect class="cls-2" x="2449.63" y="509.7" width="10.29" height="10.29"/><rect class="cls-2" x="2509.07" y="507.05" width="10.29" height="10.29"/><rect class="cls-2" x="2567.43" y="503.45" width="10.29" height="10.29"/><rect class="cls-2" x="2624.7" y="498.96" width="10.29" height="10.29"/><rect class="cls-2" x="2680.82" y="493.63" width="10.29" height="10.29"/><rect class="cls-2" x="2735.76" y="487.52" width="10.29" height="10.29"/><rect class="cls-2" x="2789.5" y="480.7" width="10.29" height="10.29"/><rect class="cls-2" x="2841.98" y="473.22" width="10.29" height="10.29"/><rect class="cls-2" x="2893.19" y="465.14" width="10.29" height="10.29"/><rect class="cls-2" x="2943.08" y="456.53" width="10.29" height="10.29"/><rect class="cls-2" x="2991.62" y="447.44" width="10.29" height="10.29"/><rect class="cls-2" x="12.6" y="375.19" width="10.29" height="10.29"/><rect class="cls-2" x="65.19" y="368.01" width="10.29" height="10.29"/><rect class="cls-2" x="119.22" y="361.61" width="10.29" height="10.29"/><rect class="cls-2" x="174.65" y="356.07" width="10.29" height="10.29"/><rect class="cls-2" x="231.47" y="351.45" width="10.29" height="10.29"/><rect class="cls-2" x="289.63" y="347.84" width="10.29" height="10.29"/><rect class="cls-2" x="349.12" y="345.3" width="10.29" height="10.29"/><rect class="cls-2" x="409.91" y="343.89" width="10.29" height="10.29"/><rect class="cls-2" x="471.96" y="343.7" width="10.29" height="10.29"/><rect class="cls-2" x="535.26" y="344.79" width="10.29" height="10.29"/><rect class="cls-2" x="599.77" y="347.23" width="10.29" height="10.29"/><rect class="cls-2" x="665.46" y="351.09" width="10.29" height="10.29"/><rect class="cls-2" x="732.31" y="356.44" width="10.29" height="10.29"/><rect class="cls-2" x="800.29" y="363.36" width="10.29" height="10.29"/><rect class="cls-2" x="869.37" y="371.91" width="10.29" height="10.29"/><rect class="cls-2" x="939.53" y="382.16" width="10.29" height="10.29"/><rect class="cls-2" x="1010.73" y="394.19" width="10.29" height="10.29"/><rect class="cls-2" x="1082.95" y="408.06" width="10.29" height="10.29"/><rect class="cls-2" x="1156.16" y="423.85" width="10.29" height="10.29"/><rect class="cls-2" x="1230.33" y="441.62" width="10.29" height="10.29"/><rect class="cls-2" x="1305.44" y="461.45" width="10.29" height="10.29"/><rect class="cls-2" x="1381.45" y="483.41" width="10.29" height="10.29"/><rect class="cls-2" x="1453.29" y="504.17" width="10.29" height="10.29"/><rect class="cls-2" x="1524.6" y="523.02" width="10.29" height="10.29"/><rect class="cls-2" x="1595.36" y="540.02" width="10.29" height="10.29"/><rect class="cls-2" x="1665.54" y="555.23" width="10.29" height="10.29"/><rect class="cls-2" x="1735.1" y="568.71" width="10.29" height="10.29"/><rect class="cls-2" x="1804.02" y="580.51" width="10.29" height="10.29"/><rect class="cls-2" x="1872.24" y="590.7" width="10.29" height="10.29"/><rect class="cls-2" x="1939.75" y="599.34" width="10.29" height="10.29"/><rect class="cls-2" x="2006.5" y="606.49" width="10.29" height="10.29"/><rect class="cls-2" x="2072.46" y="612.2" width="10.29" height="10.29"/><rect class="cls-2" x="2137.59" y="616.55" width="10.29" height="10.29"/><rect class="cls-2" x="2201.86" y="619.57" width="10.29" height="10.29"/><rect class="cls-2" x="2265.23" y="621.35" width="10.29" height="10.29"/><rect class="cls-2" x="2327.67" y="621.93" width="10.29" height="10.29"/><rect class="cls-2" x="2389.15" y="621.37" width="10.29" height="10.29"/><rect class="cls-2" x="2449.63" y="619.75" width="10.29" height="10.29"/><rect class="cls-2" x="2509.07" y="617.1" width="10.29" height="10.29"/><rect class="cls-2" x="2567.43" y="613.5" width="10.29" height="10.29"/><rect class="cls-2" x="2624.7" y="609.01" width="10.29" height="10.29"/><rect class="cls-2" x="2680.82" y="603.68" width="10.29" height="10.29"/><rect class="cls-2" x="2735.76" y="597.57" width="10.29" height="10.29"/><rect class="cls-2" x="2789.5" y="590.75" width="10.29" height="10.29"/><rect class="cls-2" x="2841.98" y="583.27" width="10.29" height="10.29"/><rect class="cls-2" x="2893.19" y="575.19" width="10.29" height="10.29"/><rect class="cls-2" x="2943.08" y="566.58" width="10.29" height="10.29"/><rect class="cls-2" x="2991.62" y="557.48" width="10.29" height="10.29"/><rect class="cls-2" x="12.6" y="485.24" width="10.29" height="10.29"/><rect class="cls-2" x="65.19" y="478.05" width="10.29" height="10.29"/><rect class="cls-2" x="119.22" y="471.65" width="10.29" height="10.29"/><rect class="cls-2" x="174.65" y="466.11" width="10.29" height="10.29"/><rect class="cls-2" x="231.47" y="461.5" width="10.29" height="10.29"/><rect class="cls-2" x="289.63" y="457.89" width="10.29" height="10.29"/><rect class="cls-2" x="349.12" y="455.34" width="10.29" height="10.29"/><rect class="cls-2" x="409.91" y="453.94" width="10.29" height="10.29"/><rect class="cls-2" x="471.96" y="453.75" width="10.29" height="10.29"/><rect class="cls-2" x="535.26" y="454.84" width="10.29" height="10.29"/><rect class="cls-2" x="599.77" y="457.27" width="10.29" height="10.29"/><rect class="cls-2" x="665.46" y="461.13" width="10.29" height="10.29"/><rect class="cls-2" x="732.31" y="466.49" width="10.29" height="10.29"/><rect class="cls-2" x="800.29" y="473.4" width="10.29" height="10.29"/><rect class="cls-2" x="869.37" y="481.95" width="10.29" height="10.29"/><rect class="cls-2" x="939.53" y="492.21" width="10.29" height="10.29"/><rect class="cls-2" x="1010.73" y="504.24" width="10.29" height="10.29"/><rect class="cls-2" x="1082.95" y="518.11" width="10.29" height="10.29"/><rect class="cls-2" x="1156.16" y="533.9" width="10.29" height="10.29"/><rect class="cls-2" x="1230.33" y="551.67" width="10.29" height="10.29"/><rect class="cls-2" x="1305.44" y="571.5" width="10.29" height="10.29"/><rect class="cls-2" x="1381.45" y="593.46" width="10.29" height="10.29"/><rect class="cls-2" x="1453.29" y="614.22" width="10.29" height="10.29"/><rect class="cls-2" x="1524.6" y="633.07" width="10.29" height="10.29"/><rect class="cls-2" x="1595.36" y="650.07" width="10.29" height="10.29"/><rect class="cls-2" x="1665.54" y="665.28" width="10.29" height="10.29"/><rect class="cls-2" x="1735.1" y="678.75" width="10.29" height="10.29"/><rect class="cls-2" x="1804.02" y="690.56" width="10.29" height="10.29"/><rect class="cls-2" x="1872.24" y="700.75" width="10.29" height="10.29"/><rect class="cls-2" x="1939.75" y="709.39" width="10.29" height="10.29"/><rect class="cls-2" x="2006.5" y="716.54" width="10.29" height="10.29"/><rect class="cls-2" x="2072.46" y="722.25" width="10.29" height="10.29"/><rect class="cls-2" x="2137.59" y="726.59" width="10.29" height="10.29"/><rect class="cls-2" x="2201.86" y="729.62" width="10.29" height="10.29"/><rect class="cls-2" x="2265.23" y="731.4" width="10.29" height="10.29"/><rect class="cls-2" x="2327.67" y="731.98" width="10.29" height="10.29"/><rect class="cls-2" x="2389.15" y="731.42" width="10.29" height="10.29"/><rect class="cls-2" x="2449.63" y="729.79" width="10.29" height="10.29"/><rect class="cls-2" x="2509.07" y="727.15" width="10.29" height="10.29"/><rect class="cls-2" x="2567.43" y="723.55" width="10.29" height="10.29"/><rect class="cls-2" x="2624.7" y="719.06" width="10.29" height="10.29"/><rect class="cls-2" x="2680.82" y="713.72" width="10.29" height="10.29"/><rect class="cls-2" x="2735.76" y="707.62" width="10.29" height="10.29"/><rect class="cls-2" x="2789.5" y="700.79" width="10.29" height="10.29"/><rect class="cls-2" x="2841.98" y="693.32" width="10.29" height="10.29"/><rect class="cls-2" x="2893.19" y="685.24" width="10.29" height="10.29"/><rect class="cls-2" x="2943.08" y="676.62" width="10.29" height="10.29"/><rect class="cls-2" x="2991.62" y="667.53" width="10.29" height="10.29"/><rect class="cls-2" x="12.6" y="595.29" width="10.29" height="10.29"/><rect class="cls-2" x="65.19" y="588.1" width="10.29" height="10.29"/><rect class="cls-2" x="119.22" y="581.7" width="10.29" height="10.29"/><rect class="cls-2" x="174.65" y="576.16" width="10.29" height="10.29"/><rect class="cls-2" x="231.47" y="571.55" width="10.29" height="10.29"/><rect class="cls-2" x="289.63" y="567.94" width="10.29" height="10.29"/><rect class="cls-2" x="349.12" y="565.39" width="10.29" height="10.29"/><rect class="cls-2" x="409.91" y="563.99" width="10.29" height="10.29"/><rect class="cls-2" x="471.96" y="563.8" width="10.29" height="10.29"/><rect class="cls-2" x="535.26" y="564.88" width="10.29" height="10.29"/><rect class="cls-2" x="599.77" y="567.32" width="10.29" height="10.29"/><rect class="cls-2" x="665.46" y="571.18" width="10.29" height="10.29"/><rect class="cls-2" x="732.31" y="576.54" width="10.29" height="10.29"/><rect class="cls-2" x="800.29" y="583.45" width="10.29" height="10.29"/><rect class="cls-2" x="869.37" y="592" width="10.29" height="10.29"/><rect class="cls-2" x="939.53" y="602.25" width="10.29" height="10.29"/><rect class="cls-2" x="1010.73" y="614.28" width="10.29" height="10.29"/><rect class="cls-2" x="1082.95" y="628.16" width="10.29" height="10.29"/><rect class="cls-2" x="1156.16" y="643.94" width="10.29" height="10.29"/><rect class="cls-2" x="1230.33" y="661.72" width="10.29" height="10.29"/><rect class="cls-2" x="1305.44" y="681.55" width="10.29" height="10.29"/><rect class="cls-2" x="1381.45" y="703.5" width="10.29" height="10.29"/><rect class="cls-2" x="1453.29" y="724.27" width="10.29" height="10.29"/><rect class="cls-2" x="1524.6" y="743.12" width="10.29" height="10.29"/><rect class="cls-2" x="1595.36" y="760.12" width="10.29" height="10.29"/><rect class="cls-2" x="1665.54" y="775.32" width="10.29" height="10.29"/><rect class="cls-2" x="1735.1" y="788.8" width="10.29" height="10.29"/><rect class="cls-2" x="1804.02" y="800.6" width="10.29" height="10.29"/><rect class="cls-2" x="1872.24" y="810.8" width="10.29" height="10.29"/><rect class="cls-2" x="1939.75" y="819.44" width="10.29" height="10.29"/><rect class="cls-2" x="2006.5" y="826.58" width="10.29" height="10.29"/><rect class="cls-2" x="2072.46" y="832.3" width="10.29" height="10.29"/><rect class="cls-2" x="2137.59" y="836.64" width="10.29" height="10.29"/><rect class="cls-2" x="2201.86" y="839.67" width="10.29" height="10.29"/><rect class="cls-2" x="2265.23" y="841.44" width="10.29" height="10.29"/><rect class="cls-2" x="2327.67" y="842.02" width="10.29" height="10.29"/><rect class="cls-2" x="2389.15" y="841.47" width="10.29" height="10.29"/><rect class="cls-2" x="2449.63" y="839.84" width="10.29" height="10.29"/><rect class="cls-2" x="2509.07" y="837.2" width="10.29" height="10.29"/><rect class="cls-2" x="2567.43" y="833.6" width="10.29" height="10.29"/><rect class="cls-2" x="2624.7" y="829.1" width="10.29" height="10.29"/><rect class="cls-2" x="2680.82" y="823.77" width="10.29" height="10.29"/><rect class="cls-2" x="2735.76" y="817.67" width="10.29" height="10.29"/><rect class="cls-2" x="2789.5" y="810.84" width="10.29" height="10.29"/><rect class="cls-2" x="2841.98" y="803.36" width="10.29" height="10.29"/><rect class="cls-2" x="2893.19" y="795.29" width="10.29" height="10.29"/><rect class="cls-2" x="2943.08" y="786.67" width="10.29" height="10.29"/><rect class="cls-2" x="2991.62" y="777.58" width="10.29" height="10.29"/><rect class="cls-2" x="12.6" y="705.33" width="10.29" height="10.29"/><rect class="cls-2" x="65.19" y="698.15" width="10.29" height="10.29"/><rect class="cls-2" x="119.22" y="691.75" width="10.29" height="10.29"/><rect class="cls-2" x="174.65" y="686.21" width="10.29" height="10.29"/><rect class="cls-2" x="231.47" y="681.6" width="10.29" height="10.29"/><rect class="cls-2" x="289.63" y="677.98" width="10.29" height="10.29"/><rect class="cls-2" x="349.12" y="675.44" width="10.29" height="10.29"/><rect class="cls-2" x="409.91" y="674.04" width="10.29" height="10.29"/><rect class="cls-2" x="471.96" y="673.84" width="10.29" height="10.29"/><rect class="cls-2" x="535.26" y="674.93" width="10.29" height="10.29"/><rect class="cls-2" x="599.77" y="677.37" width="10.29" height="10.29"/><rect class="cls-2" x="665.46" y="681.23" width="10.29" height="10.29"/><rect class="cls-2" x="732.31" y="686.58" width="10.29" height="10.29"/><rect class="cls-2" x="800.29" y="693.5" width="10.29" height="10.29"/><rect class="cls-2" x="869.37" y="702.05" width="10.29" height="10.29"/><rect class="cls-2" x="939.53" y="712.3" width="10.29" height="10.29"/><rect class="cls-2" x="1010.73" y="724.33" width="10.29" height="10.29"/><rect class="cls-2" x="1082.95" y="738.2" width="10.29" height="10.29"/><rect class="cls-2" x="1156.16" y="753.99" width="10.29" height="10.29"/><rect class="cls-2" x="1230.33" y="771.76" width="10.29" height="10.29"/><rect class="cls-2" x="1305.44" y="791.6" width="10.29" height="10.29"/><rect class="cls-2" x="1381.45" y="813.55" width="10.29" height="10.29"/><rect class="cls-2" x="1453.29" y="834.32" width="10.29" height="10.29"/><rect class="cls-2" x="1524.6" y="853.17" width="10.29" height="10.29"/><rect class="cls-2" x="1595.36" y="870.16" width="10.29" height="10.29"/><rect class="cls-2" x="1665.54" y="885.37" width="10.29" height="10.29"/><rect class="cls-2" x="1735.1" y="898.85" width="10.29" height="10.29"/><rect class="cls-2" x="1804.02" y="910.65" width="10.29" height="10.29"/><rect class="cls-2" x="1872.24" y="920.84" width="10.29" height="10.29"/><rect class="cls-2" x="1939.75" y="929.48" width="10.29" height="10.29"/><rect class="cls-2" x="2006.5" y="936.63" width="10.29" height="10.29"/><rect class="cls-2" x="2072.46" y="942.35" width="10.29" height="10.29"/><rect class="cls-2" x="2137.59" y="946.69" width="10.29" height="10.29"/><rect class="cls-2" x="2201.86" y="949.72" width="10.29" height="10.29"/><rect class="cls-2" x="2265.23" y="951.49" width="10.29" height="10.29"/><rect class="cls-2" x="2327.67" y="952.07" width="10.29" height="10.29"/><rect class="cls-2" x="2389.15" y="951.52" width="10.29" height="10.29"/><rect class="cls-2" x="2449.63" y="949.89" width="10.29" height="10.29"/><rect class="cls-2" x="2509.07" y="947.24" width="10.29" height="10.29"/><rect class="cls-2" x="2567.43" y="943.65" width="10.29" height="10.29"/><rect class="cls-2" x="2624.7" y="939.15" width="10.29" height="10.29"/><rect class="cls-2" x="2680.82" y="933.82" width="10.29" height="10.29"/><rect class="cls-2" x="2735.76" y="927.71" width="10.29" height="10.29"/><rect class="cls-2" x="2789.5" y="920.89" width="10.29" height="10.29"/><rect class="cls-2" x="2841.98" y="913.41" width="10.29" height="10.29"/><rect class="cls-2" x="2893.19" y="905.33" width="10.29" height="10.29"/><rect class="cls-2" x="2943.08" y="896.72" width="10.29" height="10.29"/><rect class="cls-2" x="2991.62" y="887.63" width="10.29" height="10.29"/><rect class="cls-2" x="12.6" y="815.38" width="10.29" height="10.29"/><rect class="cls-2" x="65.19" y="808.2" width="10.29" height="10.29"/><rect class="cls-2" x="119.22" y="801.8" width="10.29" height="10.29"/><rect class="cls-2" x="174.65" y="796.26" width="10.29" height="10.29"/><rect class="cls-2" x="231.47" y="791.64" width="10.29" height="10.29"/><rect class="cls-2" x="289.63" y="788.03" width="10.29" height="10.29"/><rect class="cls-2" x="349.12" y="785.49" width="10.29" height="10.29"/><rect class="cls-2" x="409.91" y="784.08" width="10.29" height="10.29"/><rect class="cls-2" x="471.96" y="783.89" width="10.29" height="10.29"/><rect class="cls-2" x="535.26" y="784.98" width="10.29" height="10.29"/><rect class="cls-2" x="599.77" y="787.42" width="10.29" height="10.29"/><rect class="cls-2" x="665.46" y="791.28" width="10.29" height="10.29"/><rect class="cls-2" x="732.31" y="796.63" width="10.29" height="10.29"/><rect class="cls-2" x="800.29" y="803.55" width="10.29" height="10.29"/><rect class="cls-2" x="869.37" y="812.1" width="10.29" height="10.29"/><rect class="cls-2" x="939.53" y="822.35" width="10.29" height="10.29"/><rect class="cls-2" x="1010.73" y="834.38" width="10.29" height="10.29"/><rect class="cls-2" x="1082.95" y="848.25" width="10.29" height="10.29"/><rect class="cls-2" x="1156.16" y="864.04" width="10.29" height="10.29"/><rect class="cls-2" x="1230.33" y="881.81" width="10.29" height="10.29"/><rect class="cls-2" x="1305.44" y="901.64" width="10.29" height="10.29"/><rect class="cls-2" x="1381.45" y="923.6" width="10.29" height="10.29"/><rect class="cls-2" x="1453.29" y="944.36" width="10.29" height="10.29"/><rect class="cls-2" x="1524.6" y="963.21" width="10.29" height="10.29"/><rect class="cls-2" x="1595.36" y="980.21" width="10.29" height="10.29"/><rect class="cls-2" x="1665.54" y="995.42" width="10.29" height="10.29"/><rect class="cls-2" x="1735.1" y="1008.9" width="10.29" height="10.29"/><rect class="cls-2" x="1804.02" y="1020.7" width="10.29" height="10.29"/><rect class="cls-2" x="1872.24" y="1030.89" width="10.29" height="10.29"/><rect class="cls-2" x="1939.75" y="1039.53" width="10.29" height="10.29"/><rect class="cls-2" x="2006.5" y="1046.68" width="10.29" height="10.29"/><rect class="cls-2" x="2072.46" y="1052.39" width="10.29" height="10.29"/><rect class="cls-2" x="2137.59" y="1056.74" width="10.29" height="10.29"/><rect class="cls-2" x="2201.86" y="1059.76" width="10.29" height="10.29"/><rect class="cls-2" x="2265.23" y="1061.54" width="10.29" height="10.29"/><rect class="cls-2" x="2327.67" y="1062.12" width="10.29" height="10.29"/><rect class="cls-2" x="2389.15" y="1061.56" width="10.29" height="10.29"/><rect class="cls-2" x="2449.63" y="1059.94" width="10.29" height="10.29"/><rect class="cls-2" x="2509.07" y="1057.29" width="10.29" height="10.29"/><rect class="cls-2" x="2567.43" y="1053.69" width="10.29" height="10.29"/><rect class="cls-2" x="2624.7" y="1049.2" width="10.29" height="10.29"/><rect class="cls-2" x="2680.82" y="1043.87" width="10.29" height="10.29"/><rect class="cls-2" x="2735.76" y="1037.76" width="10.29" height="10.29"/><rect class="cls-2" x="2789.5" y="1030.94" width="10.29" height="10.29"/><rect class="cls-2" x="2841.98" y="1023.46" width="10.29" height="10.29"/><rect class="cls-2" x="2893.19" y="1015.38" width="10.29" height="10.29"/><rect class="cls-2" x="2943.08" y="1006.77" width="10.29" height="10.29"/><rect class="cls-2" x="2991.62" y="997.67" width="10.29" height="10.29"/><rect class="cls-2" x="12.6" y="925.43" width="10.29" height="10.29"/><rect class="cls-2" x="65.19" y="918.24" width="10.29" height="10.29"/><rect class="cls-2" x="119.22" y="911.85" width="10.29" height="10.29"/><rect class="cls-2" x="174.65" y="906.3" width="10.29" height="10.29"/><rect class="cls-2" x="231.47" y="901.69" width="10.29" height="10.29"/><rect class="cls-2" x="289.63" y="898.08" width="10.29" height="10.29"/><rect class="cls-2" x="349.12" y="895.54" width="10.29" height="10.29"/><rect class="cls-2" x="409.91" y="894.13" width="10.29" height="10.29"/><rect class="cls-2" x="471.96" y="893.94" width="10.29" height="10.29"/><rect class="cls-2" x="535.26" y="895.03" width="10.29" height="10.29"/><rect class="cls-2" x="599.77" y="897.46" width="10.29" height="10.29"/><rect class="cls-2" x="665.46" y="901.33" width="10.29" height="10.29"/><rect class="cls-2" x="732.31" y="906.68" width="10.29" height="10.29"/><rect class="cls-2" x="800.29" y="913.59" width="10.29" height="10.29"/><rect class="cls-2" x="869.37" y="922.14" width="10.29" height="10.29"/><rect class="cls-2" x="939.53" y="932.4" width="10.29" height="10.29"/><rect class="cls-2" x="1010.73" y="944.43" width="10.29" height="10.29"/><rect class="cls-2" x="1082.95" y="958.3" width="10.29" height="10.29"/><rect class="cls-2" x="1156.16" y="974.09" width="10.29" height="10.29"/><rect class="cls-2" x="1230.33" y="991.86" width="10.29" height="10.29"/><rect class="cls-2" x="1305.44" y="1011.69" width="10.29" height="10.29"/><rect class="cls-2" x="1381.45" y="1033.65" width="10.29" height="10.29"/><rect class="cls-2" x="1453.29" y="1054.41" width="10.29" height="10.29"/><rect class="cls-2" x="1524.6" y="1073.26" width="10.29" height="10.29"/><rect class="cls-2" x="12.6" y="1035.48" width="10.29" height="10.29"/><rect class="cls-2" x="65.19" y="1028.29" width="10.29" height="10.29"/><rect class="cls-2" x="119.22" y="1021.89" width="10.29" height="10.29"/><rect class="cls-2" x="174.65" y="1016.35" width="10.29" height="10.29"/><rect class="cls-2" x="231.47" y="1011.74" width="10.29" height="10.29"/><rect class="cls-2" x="289.63" y="1008.13" width="10.29" height="10.29"/><rect class="cls-2" x="349.12" y="1005.58" width="10.29" height="10.29"/><rect class="cls-2" x="409.91" y="1004.18" width="10.29" height="10.29"/><rect class="cls-2" x="471.96" y="1003.99" width="10.29" height="10.29"/><rect class="cls-2" x="535.26" y="1005.07" width="10.29" height="10.29"/><rect class="cls-2" x="599.77" y="1007.51" width="10.29" height="10.29"/><rect class="cls-2" x="665.46" y="1011.37" width="10.29" height="10.29"/><rect class="cls-2" x="732.31" y="1016.73" width="10.29" height="10.29"/><rect class="cls-2" x="800.29" y="1023.64" width="10.29" height="10.29"/><rect class="cls-2" x="869.37" y="1032.19" width="10.29" height="10.29"/><rect class="cls-2" x="939.53" y="1042.45" width="10.29" height="10.29"/><rect class="cls-2" x="1010.73" y="1054.47" width="10.29" height="10.29"/><rect class="cls-2" x="1082.95" y="1068.35" width="10.29" height="10.29"/></g></svg>