<svg id="all_main_copy" data-name="all main copy" xmlns="http://www.w3.org/2000/svg" viewBox="0 0 3000 1080"><defs><style>.cls-1{fill:#0f0f11;}.cls-2{fill:none;stroke:#252529;stroke-miterlimit:10;stroke-width:10px;}</style></defs><g id="this_copy_4" data-name="this copy 4"><rect class="cls-1" width="3000" height="1080"/></g><g id="this_copy_4-2" data-name="this copy 4-2"><g id="right_copy_2" data-name="right copy 2"><circle class="cls-2" cx="361" cy="534" r="546"/><circle class="cls-2" cx="361" cy="534" r="493.18"/><circle class="cls-2" cx="361" cy="534" r="439.25"/><circle class="cls-2" cx="361" cy="534" r="376.97"/><circle class="cls-2" cx="361" cy="534" r="320.26"/><circle class="cls-2" cx="361" cy="534" r="267.44"/><circle class="cls-2" cx="361" cy="534" r="214.06"/><circle class="cls-2" cx="361" cy="534" r="151.23"/><circle class="cls-2" cx="361" cy="534" r="103.97"/><circle class="cls-2" cx="361" cy="534" r="57.27"/><circle class="cls-2" cx="1506.5" cy="534" r="546"/><circle class="cls-2" cx="1506.5" cy="534" r="493.18"/><circle class="cls-2" cx="1506.5" cy="534" r="439.25"/><circle class="cls-2" cx="1506.5" cy="534" r="376.97"/><circle class="cls-2" cx="1506.5" cy="534" r="320.26"/><circle class="cls-2" cx="1506.5" cy="534" r="267.44"/><circle class="cls-2" cx="1506.5" cy="534" r="214.06"/><circle class="cls-2" cx="1506.5" cy="534" r="151.23"/><circle class="cls-2" cx="1506.5" cy="534" r="103.97"/><circle class="cls-2" cx="1506.5" cy="534" r="57.27"/><circle class="cls-2" cx="2652" cy="534" r="546"/><circle class="cls-2" cx="2652" cy="534" r="493.18"/><circle class="cls-2" cx="2652" cy="534" r="439.25"/><circle class="cls-2" cx="2652" cy="534" r="376.97"/><circle class="cls-2" cx="2652" cy="534" r="320.26"/><circle class="cls-2" cx="2652" cy="534" r="267.44"/><circle class="cls-2" cx="2652" cy="534" r="214.06"/><circle class="cls-2" cx="2652" cy="534" r="151.23"/><circle class="cls-2" cx="2652" cy="534" r="103.97"/><circle class="cls-2" cx="2652" cy="534" r="57.27"/></g></g></svg>