<svg xmlns="http://www.w3.org/2000/svg" viewBox="0 0 3000 1080"><defs><style>.cls-1{fill:#0f0f11;}.cls-2{fill:none;stroke:#252529;stroke-miterlimit:10;stroke-width:9px;opacity:0.35;}</style></defs><g id="this_copy" data-name="this copy"><rect class="cls-1" width="3000" height="1080"/></g><g id="this_copy_3" data-name="this copy 3"><path class="cls-2" d="M-712.47,385.4s867.83-552,2135.8-245.42,2272.19-261.1,2272.19-261.1"/><path class="cls-2" d="M-700.19,492.25s867.83-552,2135.8-245.42S3707.8-14.27,3707.8-14.27"/><path class="cls-2" d="M-687.91,599.1s867.83-552,2135.8-245.43S3720.07,92.58,3720.07,92.58"/><path class="cls-2" d="M-675.64,706s867.84-552,2135.8-245.43,2272.19-261.1,2272.19-261.1"/><path class="cls-2" d="M-663.36,812.8s867.84-552,2135.8-245.43,2272.19-261.1,2272.19-261.1"/><path class="cls-2" d="M-651.08,919.65s867.83-552,2135.8-245.43,2272.19-261.1,2272.19-261.1"/><path class="cls-2" d="M-638.8,1026.5S229,474.45,1497,781.07,3769.19,520,3769.19,520"/><path class="cls-2" d="M-626.52,1133.34s867.83-552,2135.8-245.42,2272.18-261.1,2272.18-261.1"/><path class="cls-2" d="M-614.25,1240.19s867.84-552,2135.81-245.42,2272.18-261.1,2272.18-261.1"/><path class="cls-2" d="M-602,1347s867.84-552,2135.8-245.43S3806,840.51,3806,840.51"/><path class="cls-2" d="M-589.69,1453.89s867.84-552,2135.8-245.43S3818.3,947.36,3818.3,947.36"/><path class="cls-2" d="M-577.41,1560.74s867.83-552,2135.8-245.43,2272.19-261.1,2272.19-261.1"/><path class="cls-2" d="M-724.75,278.56s867.84-552,2135.8-245.43S3683.24-228,3683.24-228"/><path class="cls-2" d="M-737,171.71s867.84-552,2135.8-245.43S3671-334.82,3671-334.82"/><path class="cls-2" d="M-749.3,64.86s867.83-552,2135.8-245.43,2272.18-261.1,2272.18-261.1"/></g></svg>