<svg xmlns="http://www.w3.org/2000/svg" viewBox="0 0 2000 240"><defs><style>.cls-1{fill:none;stroke:#2e2e33;stroke-miterlimit:10;stroke-width:7px;opacity:0.31;}</style></defs><g id="Layer_1" data-name="Layer 1"><rect width="2000" height="240"/></g><g id="Layer_3_copy" data-name="Layer 3 copy"><path class="cls-1" d="M-298-38.08S261.11,182.18,841.82,51.27,2255.94,240.53,2255.94,240.53"/><path class="cls-1" d="M-307.69,36.28S251.44,256.54,832.15,125.63,2246.27,314.89,2246.27,314.89"/><path class="cls-1" d="M-298,111.91S261.13,332.16,841.85,201.26,2256,390.52,2256,390.52"/><path class="cls-1" d="M-307.66,186.27S251.46,406.53,832.18,275.62,2246.3,464.88,2246.3,464.88"/><path class="cls-1" d="M-307.69-256.33S251.44-36.07,832.15-167,2246.27,22.28,2246.27,22.28"/><path class="cls-1" d="M-298-180.7S261.13,39.56,841.85-91.35,2256,97.91,2256,97.91"/><path class="cls-1" d="M-307.66-106.34S251.46,113.92,832.18-17,2246.3,172.27,2246.3,172.27"/></g></svg>