<?xml version="1.0" encoding="utf-8"?>
<!-- Generator: Adobe Illustrator 24.3.0, SVG Export Plug-In . SVG Version: 6.00 Build 0)  -->
<svg version="1.1" xmlns="http://www.w3.org/2000/svg" xmlns:xlink="http://www.w3.org/1999/xlink" x="0px" y="0px"
	 viewBox="0 0 2000 240" style="enable-background:new 0 0 2000 240;" xml:space="preserve">
<style type="text/css">
	.st0{display:none;}
	.st1{display:inline;}
	.st2{fill:none;stroke:#222222;stroke-width:6.2;stroke-miterlimit:8;stroke-opacity:0.42;}
	.st3{display:inline;opacity:0.31;fill:none;stroke:#2E2E33;stroke-width:7;stroke-miterlimit:10;}
	.st4{opacity:0.31;fill:none;stroke:#2E2E33;stroke-width:7;stroke-miterlimit:10;}
</style>
<g id="Layer_1">
	<rect width="2000" height="240"/>
</g>
<g id="Layer_2" class="st0">
	<g class="st1">
		<path class="st2" d="M-1437.4,139.4c0,0,250-60,500-60s500,60,500,60s250,60,500,60s500-60,500-60s250-60,500-60s500,60,500,60
			s250,60,500,60s500-60,500-60"/>
		<path class="st2" d="M-1437.4,79.4c0,0,250-60,500-60s500,60,500,60s250,60,500,60s500-60,500-60s250-60,500-60s500,60,500,60
			s250,60,500,60s500-60,500-60"/>
		<path class="st2" d="M-1437.4,199.4c0,0,250-60,500-60s500,60,500,60s250,60,500,60s500-60,500-60s250-60,500-60s500,60,500,60
			s250,60,500,60s500-60,500-60"/>
		<path class="st2" d="M-1437.4,19.4c0,0,250-60,500-60s500,60,500,60s250,60,500,60s500-60,500-60s250-60,500-60s500,60,500,60
			s250,60,500,60s500-60,500-60"/>
		<path class="st2" d="M-1437.4-40.6c0,0,250-60,500-60s500,60,500,60s250,60,500,60s500-60,500-60s250-60,500-60s500,60,500,60
			s250,60,500,60s500-60,500-60"/>
		<path class="st2" d="M-1437.4,259.4c0,0,250-60,500-60s500,60,500,60s250,60,500,60s500-60,500-60s250-60,500-60s500,60,500,60
			s250,60,500,60s500-60,500-60"/>
	</g>
</g>
<g id="Layer_3" class="st0">
	<path class="st3" d="M-287.7-170.3c0,0,559.1,220.3,1139.8,89.3s1414.1,189.3,1414.1,189.3"/>
	<path class="st3" d="M-298-38.1c0,0,559.1,220.3,1139.8,89.3s1414.1,189.3,1414.1,189.3"/>
	<path class="st3" d="M-307.7,85.3c0,0,559.1,220.3,1139.8,89.3s1414.1,189.3,1414.1,189.3"/>
	<path class="st3" d="M-317.7,207.9c0,0,559.1,220.3,1139.8,89.3s1414.1,189.3,1414.1,189.3"/>
</g>
<g id="Layer_3_copy">
	<path class="st4" d="M-298-38.1c0,0,559.1,220.3,1139.8,89.3s1414.1,189.3,1414.1,189.3"/>
	<path class="st4" d="M-307.7,36.3c0,0,559.1,220.3,1139.8,89.3s1414.1,189.3,1414.1,189.3"/>
	<path class="st4" d="M-298,111.9c0,0,559.1,220.3,1139.8,89.3S2256,390.5,2256,390.5"/>
	<path class="st4" d="M-307.7,186.3c0,0,559.1,220.3,1139.8,89.3s1414.1,189.3,1414.1,189.3"/>
	<path class="st4" d="M-307.7-256.3c0,0,559.1,220.3,1139.8,89.3S2246.3,22.3,2246.3,22.3"/>
	<path class="st4" d="M-298-180.7c0,0,559.1,220.3,1139.8,89.3S2256,97.9,2256,97.9"/>
	<path class="st4" d="M-307.7-106.3c0,0,559.1,220.3,1139.8,89.3s1414.1,189.3,1414.1,189.3"/>
</g>
</svg>
